<svg xmlns:xlink="http://www.w3.org/1999/xlink" width="336.9" height="389.2" viewBox="0 0 89.138 102.976" xmlns="http://www.w3.org/2000/svg">
  <defs>
    <linearGradient xlink:href="#readepi_svg__a" id="readepi_svg__b" x1="133.059" x2="470.048" y1="392.074" y2="392.074" gradientTransform="translate(7.948 -4.996) scale(.26458)" gradientUnits="userSpaceOnUse"/>
    <linearGradient id="readepi_svg__a" x1="133.059" x2="470.048" y1="392.074" y2="392.074" gradientUnits="userSpaceOnUse">
      <stop offset="0" style="stop-color:#0b1e2c"/>
      <stop offset="1" style="stop-color:#0d6c9f"/>
    </linearGradient>
  </defs>
  <path d="M106.546 61.93 61.964 87.676v51.487l44.582 25.744 44.556-25.744V87.675Z" class="readepi_svg__st4" style="fill:#fff;fill-opacity:1;stroke-width:.264583" transform="translate(-61.964 -61.93)"/>
  <path d="M394.2 401.3c0-.8.5-1.4 1.3-1.4s1.4.5 1.4 1.3-.5 1.4-1.3 1.4h-.1c-.6 0-1.2-.6-1.3-1.3zm4-24.3c-.1.7-.7 1.1-1.3 1.1h-.2c-.7-.1-1.3-.8-1.1-1.6.1-.7.8-1.3 1.6-1.1.6.2 1.1.9 1 1.6zm0 36.2c.1.7-.4 1.4-1.1 1.6h-.2c-.7 0-1.2-.5-1.3-1.1-.1-.7.4-1.4 1.1-1.6.7-.1 1.4.4 1.5 1.1zm-2.7 39.9c.6-.3 1.4-.1 1.7.5.3.6.1 1.4-.5 1.7-.2.1-.4.1-.6.1-.5 0-.9-.2-1.1-.7-.3-.6-.1-1.3.5-1.6zm1.2 68c-.2.2-.4.3-.7.3-.2 0-.4-.1-.6-.2-.4-.3-.4-.9-.1-1.3.3-.4.9-.4 1.3-.1.5.4.5.9.1 1.3zm.8-39.3c-.2.2-.4.2-.7.2-.3 0-.7-.2-.9-.5-.4-.5-.3-1.2.2-1.6.5-.4 1.2-.3 1.6.2.4.6.3 1.3-.2 1.7zm.7-56c-.2-.7.2-1.5 1-1.7.7-.2 1.5.2 1.7 1 .2.7-.2 1.5-1 1.7h-.4c-.6 0-1.2-.4-1.3-1zm2.7 80.5c-.2.2-.5.3-.7.3-.3 0-.5-.1-.7-.3-.4-.4-.4-1 0-1.4.4-.4 1-.4 1.4 0 .4.3.4 1 0 1.4zm2-40.5c-.2.1-.4.2-.7.2-.4 0-.8-.2-1.1-.6-.4-.6-.2-1.4.4-1.7.6-.4 1.4-.2 1.7.4.5.6.3 1.4-.3 1.7zm-.1-30c.7-.3 1.5.1 1.8.8.3.7-.1 1.5-.8 1.8-.2.1-.3.1-.5.1-.5 0-1.1-.3-1.3-.9-.2-.7.1-1.5.8-1.8zm1.8-82.2c-.2.5-.7.9-1.3.9-.2 0-.3 0-.5-.1-.7-.3-1.1-1.1-.8-1.8.3-.7 1.1-1.1 1.8-.8.7.3 1 1.1.8 1.8zm2.6 95.3c-.3-.7-.1-1.5.6-1.8.7-.3 1.5-.1 1.8.6.3.7.1 1.5-.6 1.8-.2.1-.4.2-.6.2-.5-.1-1-.4-1.2-.8zm4.1-65.9c-.1.7-.7 1.3-1.5 1.3h-.2c-.8-.1-1.4-.8-1.3-1.6.1-.8.8-1.4 1.6-1.3.9.1 1.5.8 1.4 1.6zm0 24.2c.1.8-.5 1.5-1.3 1.6h-.2c-.7 0-1.4-.6-1.5-1.3-.1-.8.5-1.5 1.3-1.6.9-.1 1.6.5 1.7 1.3zm-2.2-13.6c.8 0 1.5.7 1.5 1.5s-.7 1.5-1.5 1.5-1.5-.7-1.5-1.5.7-1.5 1.5-1.5zm.9 120.9c-.2.2-.5.4-.8.4-.2 0-.5-.1-.7-.2-.4-.4-.5-1-.1-1.4.4-.4 1-.5 1.4-.1.5.3.5.9.2 1.3zm.1-38.7c-.2.2-.5.3-.8.3-.4 0-.7-.2-1-.5-.4-.5-.3-1.3.2-1.8.5-.4 1.3-.3 1.8.2s.4 1.3-.2 1.8zm.5-56c-.2-.8.3-1.6 1.1-1.8.8-.2 1.6.3 1.8 1.1.2.8-.3 1.6-1.1 1.8h-.4c-.6 0-1.2-.5-1.4-1.1zm3.4 80.1c-.2.2-.5.4-.8.4-.3 0-.6-.1-.8-.3-.5-.4-.5-1.2-.1-1.6.4-.4 1.1-.5 1.6-.1s.5 1.1.1 1.6zm1.4-40c-.2.2-.5.2-.8.2-.4 0-.9-.2-1.1-.6-.4-.6-.2-1.5.4-1.9.6-.4 1.5-.2 1.9.4.4.7.2 1.5-.4 1.9zm1.6-100.3c-.2.6-.8 1-1.4 1-.2 0-.4 0-.5-.1-.8-.3-1.1-1.1-.9-1.9.3-.8 1.1-1.1 1.9-.9.8.3 1.2 1.1.9 1.9zm-.8 72.9c-.2.1-.4.1-.5.1-.6 0-1.2-.4-1.4-1-.3-.8.1-1.6.9-1.9.8-.3 1.6.1 1.9.9.3.8-.1 1.6-.9 1.9zm3.2 10.5c-.4-.7-.1-1.6.6-2 .7-.4 1.6-.1 2 .6.4.7.1 1.6-.6 2-.2.1-.5.2-.7.2-.5 0-1-.3-1.3-.8zm3.6-52.4h-.1c-.9-.1-1.5-.8-1.5-1.7.1-.9.8-1.5 1.7-1.5.9.1 1.5.8 1.5 1.7-.1.8-.8 1.5-1.6 1.5zm1.6 10.5c.1.9-.6 1.6-1.5 1.7h-.1c-.8 0-1.5-.6-1.6-1.5-.1-.9.6-1.6 1.5-1.7.8 0 1.6.6 1.7 1.5zm-3.5 66.5c.6-.5 1.4-.4 1.9.2.5.6.4 1.4-.2 1.9-.3.2-.6.3-.9.3-.4 0-.8-.2-1-.5-.5-.6-.4-1.4.2-1.9zm2.3 40.2c-.2.3-.6.4-.9.4-.2 0-.5-.1-.7-.2-.5-.4-.6-1.1-.2-1.6.4-.5 1.1-.6 1.6-.2.5.4.6 1.1.2 1.6zm1.3-92.8c-.7 0-1.4-.5-1.6-1.3-.2-.9.4-1.7 1.2-1.9.9-.2 1.7.4 1.9 1.2.2.9-.4 1.7-1.2 1.9-.1.1-.2.1-.3.1zm2.5 78.3c-.2.3-.6.4-.9.4-.3 0-.6-.1-.8-.3-.5-.5-.6-1.2-.1-1.8.5-.6 1.2-.6 1.8-.1.4.5.5 1.3 0 1.8zm.7-39.3c-.3.2-.6.3-.8.3-.5 0-.9-.2-1.2-.6-.5-.7-.3-1.6.4-2.1s1.6-.3 2.1.4c.4.6.2 1.5-.5 2zm.2-27.2c-.6 0-1.3-.4-1.5-1-.3-.8.1-1.7 1-2 .8-.3 1.7.1 2 1 .3.8-.1 1.7-1 2-.2-.1-.4 0-.5 0zm3.2 51.8c-.3.3-.6.4-1 .4-.3 0-.7-.1-1-.4-.5-.5-.6-1.4 0-1.9.5-.5 1.4-.6 1.9 0 .6.5.6 1.3.1 1.9zm.3-41.5c-.4-.8-.1-1.7.7-2.2.8-.4 1.7-.1 2.2.7.4.8.1 1.7-.7 2.2-.2.1-.5.2-.7.2-.6 0-1.2-.4-1.5-.9zm1.9 26.3c-.5-.6-.5-1.5.1-2.1.6-.5 1.5-.5 2.1.1.5.6.5 1.5-.1 2.1-.3.2-.6.4-1 .4s-.8-.2-1.1-.5zm1.2-68.3c0-.9.8-1.7 1.7-1.7.9 0 1.7.8 1.7 1.7 0 .9-.8 1.7-1.7 1.7-.9 0-1.7-.7-1.7-1.7zm2.2 105.7c-.2.3-.6.5-1 .5-.3 0-.5-.1-.7-.2-.6-.4-.7-1.2-.3-1.7.4-.6 1.2-.7 1.7-.3.6.4.7 1.1.3 1.7zm.5-91.8c-.8 0-1.5-.6-1.7-1.4-.2-.9.5-1.8 1.4-2 .9-.2 1.8.5 2 1.4.2.9-.5 1.8-1.4 2h-.3zm3.2 77.6c-.3.3-.7.5-1.1.5-.3 0-.6-.1-.8-.3-.6-.5-.7-1.3-.2-1.9.5-.6 1.3-.7 1.9-.2.6.4.7 1.3.2 1.9zm-.1-38.6c-.3.2-.6.3-.9.3-.5 0-1-.2-1.3-.7-.5-.7-.4-1.7.3-2.2.7-.5 1.7-.4 2.2.4.6.7.4 1.7-.3 2.2zm.5-27.2c-.2.1-.4.1-.6.1-.7 0-1.4-.4-1.6-1.2-.3-.9.2-1.9 1.1-2.2.9-.3 1.9.2 2.2 1.1.3 1-.2 1.9-1.1 2.2zm3.4 51.3c-.3.3-.7.5-1.1.5-.3 0-.7-.1-1-.4-.6-.5-.7-1.5-.1-2.1.5-.6 1.5-.7 2.1-.1.6.5.7 1.5.1 2.1zm-.5-40.9c-.4-.8-.1-1.9.7-2.3.8-.5 1.9-.1 2.3.7.5.8.1 1.9-.7 2.3-.3.1-.5.2-.8.2-.6 0-1.2-.3-1.5-.9zm2.4 26c-.6-.6-.6-1.6 0-2.3.6-.6 1.6-.6 2.2 0 .6.6.6 1.6 0 2.3-.3.3-.7.4-1.1.4-.4.1-.8 0-1.1-.4zm4.1-66.4h-.2c-1-.1-1.7-1-1.6-2 .1-1 1-1.7 2-1.6 1 .1 1.7 1 1.6 2-.1.9-.9 1.6-1.8 1.6zm1.8 10.3c.1 1-.6 1.9-1.6 2h-.2c-.9 0-1.7-.7-1.8-1.6-.1-1 .6-1.9 1.6-2 1-.2 1.9.6 2 1.6zm-1.5 92.4c-.3.4-.7.6-1.2.6-.2 0-.5-.1-.7-.2-.6-.4-.8-1.2-.4-1.9.4-.6 1.2-.8 1.9-.4.6.4.8 1.3.4 1.9zm.1-51.8c-.6-.7-.4-1.8.3-2.4.7-.6 1.8-.4 2.4.3.6.7.4 1.8-.3 2.4-.3.2-.7.4-1 .4-.6 0-1.1-.2-1.4-.7zm3.4 37.8c-.3.4-.7.6-1.2.6-.3 0-.6-.1-.8-.3-.7-.5-.8-1.4-.4-2.1.5-.7 1.4-.8 2.1-.4.6.6.8 1.5.3 2.2zm3.6-14.2c-.3.4-.8.6-1.3.6-.3 0-.7-.1-1-.3-.7-.5-.8-1.5-.3-2.2.5-.7 1.5-.8 2.2-.3.8.5 1 1.5.4 2.2zm-.1-39c-.6 0-1.3-.3-1.6-.9-.5-.9-.2-2 .7-2.5.9-.5 2-.2 2.5.7.5.9.2 2-.7 2.5-.3.1-.6.2-.9.2zm4 24.5c-.3.4-.8.6-1.3.6-.4 0-.8-.1-1.2-.4-.7-.6-.7-1.7-.1-2.4s1.7-.7 2.4-.1c.8.6.8 1.6.2 2.3zm-2.5-111.6c.7-.6 1.8-.6 2.4.1.6.7.6 1.8-.1 2.4-.3.3-.7.5-1.2.5s-.9-.2-1.3-.6c-.6-.6-.5-1.7.2-2.4zm0 27.4c-.3.6-1 .9-1.6.9-.3 0-.6-.1-.9-.2-.9-.5-1.2-1.6-.7-2.5.5-.9 1.6-1.2 2.5-.7.9.5 1.2 1.6.7 2.5zm-3.7-42c.7-.5 1.7-.4 2.2.3.5.7.4 1.7-.3 2.2-.3.2-.6.3-1 .3-.5 0-.9-.2-1.3-.6-.4-.7-.3-1.7.4-2.2zm-2.1 90.4c-.2.1-.4.1-.5.1-.8 0-1.5-.5-1.7-1.3-.3-1 .2-2 1.2-2.3 1-.3 2 .2 2.3 1.2.2 1-.3 2-1.3 2.3zm1.2-37.5c-.2.8-1 1.3-1.7 1.3-.2 0-.4 0-.5-.1-1-.3-1.5-1.3-1.2-2.3.3-1 1.3-1.5 2.3-1.2.8.4 1.4 1.4 1.1 2.3zm-2.5-67.2c.7-.5 1.6-.3 2.1.4s.3 1.6-.4 2.1c-.3.2-.6.3-.8.3-.5 0-.9-.2-1.2-.6-.6-.8-.4-1.8.3-2.2zm1 37.9c.7.6.9 1.7.3 2.4-.3.4-.8.7-1.3.7-.4 0-.7-.1-1-.4-.7-.6-.9-1.7-.3-2.4.5-.8 1.5-.9 2.3-.3zm-4.4-52c.6-.4 1.5-.2 1.9.4.4.6.2 1.5-.4 1.9-.2.1-.5.2-.7.2-.5 0-.9-.2-1.2-.6-.4-.6-.2-1.5.4-1.9zm-2.5 36.7c.6-.6 1.6-.7 2.3 0 .6.6.7 1.6 0 2.3-.3.3-.7.5-1.1.5-.4 0-.8-.1-1.1-.4-.7-.7-.7-1.7-.1-2.4zm-.1 25.4c.8.4 1.1 1.5.7 2.3-.3.6-.9.9-1.5.9-.3 0-.6-.1-.8-.2-.8-.4-1.1-1.5-.7-2.3.5-.8 1.5-1.2 2.3-.7zm-3.8-40.3c.6-.5 1.5-.5 2.1.1.5.6.5 1.5-.1 2.1-.3.3-.6.4-1 .4s-.8-.2-1.1-.5c-.6-.7-.5-1.6.1-2.1zm-.3 53.6c-.2.7-.9 1.2-1.6 1.2-.2 0-.4 0-.6-.1-.9-.3-1.4-1.3-1.1-2.2.3-.9 1.3-1.4 2.2-1.1.9.3 1.4 1.3 1.1 2.2zm-3.4-68.2c.6-.5 1.5-.4 1.9.2.5.6.4 1.4-.2 1.9-.3.2-.6.3-.8.3-.4 0-.8-.2-1.1-.5-.5-.6-.4-1.4.2-1.9zm-.4 39.1c.5-.7 1.5-.9 2.2-.4.7.5.9 1.5.4 2.2-.3.4-.8.7-1.3.7-.3 0-.7-.1-.9-.3-.7-.5-.9-1.5-.4-2.2zm-.5 38.7c.9.2 1.6 1 1.4 2-.1.8-.9 1.4-1.7 1.4h-.3c-.9-.1-1.6-1-1.4-2 .2-.9 1.1-1.5 2-1.4zm-2.6-92.1c.6-.4 1.3-.3 1.7.3.4.6.3 1.3-.3 1.7-.2.2-.5.2-.7.2-.4 0-.8-.2-1-.5-.4-.5-.3-1.3.3-1.7zm-1.6 37.7c.5-.6 1.5-.7 2.1-.1.6.5.7 1.5.1 2.1-.3.3-.7.5-1.1.5-.3 0-.7-.1-1-.4-.6-.6-.7-1.5-.1-2.1zm.3 25.6c.8.4 1.1 1.4.7 2.2-.3.5-.8.8-1.4.8-.3 0-.5-.1-.7-.2-.8-.4-1.1-1.4-.7-2.2.3-.7 1.3-1 2.1-.6zm-4.5-40.8c.5-.5 1.4-.5 1.9 0s.5 1.4 0 1.9c-.3.3-.6.4-1 .4s-.7-.1-1-.4c-.5-.5-.5-1.4.1-1.9zm.2 54c-.2.6-.8 1-1.5 1-.2 0-.4 0-.5-.1-.8-.3-1.3-1.2-1-2 .3-.8 1.2-1.3 2-1 .9.3 1.3 1.3 1 2.1zm-1.3-27.4c-.3.4-.7.6-1.2.6-.3 0-.6-.1-.8-.3-.7-.5-.8-1.4-.4-2.1.5-.7 1.4-.8 2.1-.4.6.6.8 1.6.3 2.2zm-2.8-41.4c.5-.5 1.3-.4 1.8.1s.4 1.3-.1 1.8c-.2.2-.5.3-.8.3-.4 0-.7-.1-.9-.4-.6-.6-.6-1.4 0-1.8zm-.4 78.5c.9.2 1.4 1 1.2 1.9-.2.8-.8 1.3-1.6 1.3h-.3c-.9-.2-1.4-1-1.2-1.9.2-1 1-1.5 1.9-1.3zm-3.3-93.1c.5-.4 1.2-.3 1.6.2.4.5.3 1.2-.2 1.6-.2.2-.5.2-.7.2-.3 0-.7-.1-.9-.4-.4-.5-.3-1.2.2-1.6zm-.9 38.5c.5-.6 1.3-.7 1.9-.2.6.5.7 1.3.2 1.9-.3.3-.7.5-1.1.5-.3 0-.6-.1-.9-.3-.5-.5-.5-1.3-.1-1.9zm-1.4 26.5c.4-.7 1.3-1 2-.6s1 1.3.6 2c-.3.5-.8.8-1.3.8-.2 0-.5-.1-.7-.2-.7-.4-1-1.3-.6-2zm-1.1 137.7c-.2.2-.6.3-.9.3-.3 0-.7-.1-.9-.4-.5-.5-.5-1.3 0-1.8s1.3-.5 1.8 0c.5.7.5 1.5 0 1.9zm-1.9-179.6c.5-.5 1.3-.5 1.8 0s.5 1.3 0 1.8c-.2.3-.6.4-.9.4-.3 0-.6-.1-.9-.3-.5-.6-.5-1.4 0-1.9zm-1.1 25c.6.4.8 1.3.4 1.9-.3.4-.7.6-1.1.6-.3 0-.5-.1-.8-.2-.6-.4-.8-1.3-.4-1.9.5-.7 1.3-.8 1.9-.4zm-3-40c.5-.4 1.2-.4 1.6 0 .4.5.4 1.2 0 1.6-.2.2-.5.3-.8.3-.3 0-.6-.1-.8-.4-.5-.4-.4-1.1 0-1.5zm-1.7 80.2c.2-.8 1-1.3 1.8-1.1.8.2 1.3 1 1.1 1.8-.2.7-.8 1.1-1.4 1.1h-.4c-.8-.3-1.3-1.1-1.1-1.8zm-2.1-95c.4-.4 1.1-.3 1.4.1.4.4.3 1.1-.1 1.4-.2.2-.4.2-.7.2-.3 0-.6-.1-.8-.4-.3-.3-.3-.9.2-1.3zm-.2 39.2c.4-.5 1.2-.6 1.8-.2.5.4.6 1.2.2 1.8-.2.3-.6.5-1 .5-.3 0-.5-.1-.8-.3-.5-.5-.6-1.3-.2-1.8zm-1.2 26.6c.3-.7 1.2-.9 1.8-.6.7.3.9 1.2.6 1.8-.2.5-.7.7-1.2.7-.2 0-.4 0-.6-.2-.6-.2-.9-1-.6-1.7zm-1.7 149.9c-.2.2-.5.3-.8.3-.3 0-.6-.1-.8-.4-.4-.5-.4-1.2.1-1.6.5-.4 1.2-.4 1.6.1.4.4.3 1.1-.1 1.6zm-1.7-192.1c.4-.5 1.1-.5 1.6-.1s.5 1.1.1 1.6c-.2.2-.5.4-.8.4-.3 0-.5-.1-.8-.3-.5-.4-.5-1.1-.1-1.6zm-.9 25.3c.6.4.8 1.1.4 1.7-.2.4-.6.6-1.1.6-.2 0-.5-.1-.7-.2-.6-.4-.8-1.1-.4-1.7.5-.6 1.3-.8 1.8-.4zm-3.4-40.5c.4-.4 1-.4 1.4 0 .4.4.4 1.1 0 1.4-.2.2-.5.3-.7.3-.2 0-.5-.1-.7-.3-.4-.3-.4-1 0-1.4zm-1.3 80.5c.2-.7 1-1.2 1.7-1 .7.2 1.2.9 1 1.7-.2.6-.7 1-1.3 1h-.4c-.7-.2-1.2-.9-1-1.7zm-.5-54.4c-.2.3-.6.5-.9.5-.2 0-.5-.1-.7-.2-.5-.4-.6-1.1-.2-1.6.4-.5 1.1-.6 1.6-.2.5.3.6 1 .2 1.5zm-2.2-41c.4-.3.9-.3 1.3.1.3.4.3.9-.1 1.3-.2.2-.4.2-.6.2-.2 0-.5-.1-.7-.3-.3-.4-.3-1 .1-1.3zm-.5 66.5c.3-.6 1.1-.9 1.7-.5.6.3.9 1.1.5 1.7-.2.4-.7.7-1.1.7-.2 0-.4 0-.6-.1-.6-.4-.8-1.2-.5-1.8zm.8 52.1c.8 0 1.3.7 1.3 1.4s-.6 1.3-1.4 1.3h-.1c-.8 0-1.3-.7-1.3-1.4.1-.7.7-1.3 1.5-1.3zM391 293c.4-.4 1-.5 1.4-.1.4.4.5 1 .1 1.4-.2.2-.5.4-.8.4-.2 0-.5-.1-.7-.2-.3-.5-.3-1.1 0-1.5zm-.5 148.9c.6-.3 1.4.1 1.6.7.3.6-.1 1.4-.7 1.6-.2.1-.3.1-.5.1-.5 0-1-.3-1.2-.8-.1-.7.2-1.4.8-1.6zm-.7-95.2c.3-.6 1-1 1.6-.7.6.3 1 1 .7 1.6-.2.5-.7.8-1.2.8-.2 0-.3 0-.5-.1-.6-.2-.9-.9-.6-1.6zm-3.2-69.1c.3-.4.9-.4 1.3 0 .4.3.4.9 0 1.3-.2.2-.4.3-.7.3-.2 0-.4-.1-.6-.2-.3-.4-.4-1 0-1.4zm-2.4 51.5c.6.3.8 1 .5 1.5-.2.4-.6.6-1 .6-.2 0-.4 0-.5-.1-.6-.3-.8-1-.5-1.5.3-.6 1-.8 1.5-.5zm.1 40.4c.7.1 1.1.8 1 1.5-.1.6-.6 1-1.2 1h-.2c-.7-.1-1.1-.8-1-1.5 0-.7.7-1.1 1.4-1zm.5-67.1c.5.3.6 1 .2 1.4-.2.3-.5.4-.8.4-.2 0-.4-.1-.6-.2-.5-.3-.6-1-.2-1.4.3-.4.9-.5 1.4-.2zm-2.4-39.8c.3-.3.8-.3 1.1 0 .3.3.3.8 0 1.1-.2.1-.4.2-.6.2-.2 0-.4-.1-.6-.2-.2-.3-.2-.8.1-1.1zm0 119c.7.1 1.2.7 1.1 1.4-.1.6-.6 1.1-1.2 1.1h-.1c-.7-.1-1.2-.7-1.1-1.4 0-.6.7-1.1 1.3-1.1zm-4-94.7c.3-.4.9-.4 1.3-.1.4.3.4.9.1 1.3-.2.2-.4.3-.7.3-.2 0-.4-.1-.6-.2-.3-.3-.4-.9-.1-1.3zm-.2 161c.6-.2 1.2 0 1.5.6.2.6 0 1.2-.6 1.5-.1.1-.3.1-.4.1-.4 0-.9-.3-1.1-.7-.3-.6 0-1.2.6-1.5zm-.7-107.1c.2-.6.9-.9 1.5-.6.6.2.9.9.6 1.5-.2.4-.6.7-1.1.7-.1 0-.3 0-.4-.1-.5-.2-.8-.9-.6-1.5zm-3.6-69.4c.3-.3.8-.4 1.1-.1.3.3.4.8.1 1.1-.2.2-.4.3-.6.3-.2 0-.4-.1-.5-.2-.4-.3-.4-.8-.1-1.1zm-2.9 25.3c.3-.4.9-.5 1.3-.2s.5.9.2 1.3c-.2.3-.5.4-.7.4-.2 0-.4-.1-.5-.2-.5-.3-.6-.9-.3-1.3zm.6 130h-.2c-.5 0-1-.4-1.1-.9-.1-.6.3-1.2.9-1.4.6-.1 1.2.3 1.4.9 0 .6-.4 1.2-1 1.4zm.3 40.2c-.1.1-.3.1-.5.1-.4 0-.7-.2-.9-.6-.3-.5-.1-1.1.4-1.4.5-.3 1.1-.1 1.4.4.3.7.1 1.3-.4 1.5zm-.3-103.3c.6.1 1 .7.9 1.4-.1.5-.6.9-1.1.9h-.2c-.6-.1-1-.7-.9-1.4 0-.7.7-1.1 1.3-.9zm-1.1-39.9c.3-.5.9-.7 1.4-.4.5.3.7.9.4 1.4-.2.4-.5.6-.9.6-.2 0-.3 0-.5-.1-.5-.4-.7-1-.4-1.5zm-.9-67.5c.3-.3.7-.3 1 0 .3.3.3.7 0 1-.1.1-.3.2-.5.2s-.3-.1-.5-.2c-.3-.3-.3-.7 0-1zm-.2 119.4c.6.1 1.1.7 1 1.3-.1.6-.6 1-1.1 1h-.1c-.6-.1-1.1-.7-1-1.3 0-.6.6-1 1.2-1zm-1.1 12.3c.6 0 1.1.6 1.1 1.2s-.5 1.1-1.1 1.1c-.6 0-1.1-.6-1.1-1.2-.1-.7.4-1.2 1.1-1.1zm-2.4 66.1c.5-.2 1.1 0 1.3.6.2.5 0 1.1-.6 1.3-.1.1-.3.1-.4.1-.4 0-.8-.2-.9-.6-.2-.6.1-1.2.6-1.4zm-.6-119.1c.2-.5.8-.8 1.3-.6.5.2.8.8.6 1.3-.2.4-.5.6-.9.6-.1 0-.3 0-.4-.1-.6 0-.8-.6-.6-1.2zm.6-54.1c.3-.3.8-.4 1.1-.1.3.3.4.8.1 1.1-.2.2-.4.3-.6.3-.2 0-.3-.1-.5-.2-.3-.2-.3-.7-.1-1.1zm-4.7-15.6c.2-.3.7-.3 1-.1.3.2.3.7.1 1-.1.2-.3.2-.5.2s-.3-.1-.4-.2c-.4-.1-.4-.6-.2-.9zm-2.6 25.5c.3-.4.7-.5 1.1-.2.4.2.5.7.2 1.1-.2.2-.4.3-.7.3-.2 0-.3 0-.4-.1-.4-.2-.4-.7-.2-1.1zm-.4 27.1c.2-.4.8-.6 1.2-.4.4.2.6.8.4 1.2-.2.3-.5.5-.8.5-.1 0-.3 0-.4-.1-.4-.2-.6-.7-.4-1.2zm.7 39.9c.6.1.9.7.8 1.2-.1.5-.5.8-1 .8h-.2c-.6-.1-.9-.7-.8-1.2.1-.6.7-1 1.2-.8zM356.8 250c.2-.2.6-.2.8 0 .2.2.2.6 0 .8-.1.1-.3.2-.4.2-.1 0-.3-.1-.4-.2-.2-.2-.2-.6 0-.8zm-.3 119.7c.6.1.9.6.9 1.2-.1.5-.5.9-1 .9h-.2c-.6-.1-.9-.6-.9-1.2.1-.6.6-1 1.2-.9zm-.6 13.2c0 .5-.5.9-1 .9h-.1c-.6 0-1-.5-.9-1.1 0-.6.5-1 1.1-.9.5.1 1 .6.9 1.1zm-.5 12.2c0 .6-.5 1-1 1s-1-.5-1-1c0-.6.5-1 1-1s1 .5 1 1zm-.7-65.4c-.1.3-.5.6-.8.6-.1 0-.2 0-.4-.1-.5-.2-.7-.7-.5-1.2.2-.5.7-.7 1.2-.5.5.3.7.8.5 1.2zm-.3-55c.3.2.4.7.1 1-.1.2-.3.3-.5.3-.1 0-.3 0-.4-.1-.3-.2-.4-.7-.1-1 .2-.4.6-.5.9-.2zm-1.8-39.8c.2-.2.5-.2.6 0 .2.2.2.5 0 .6-.1.1-.2.1-.3.1-.1 0-.2 0-.3-.1-.2-.2-.2-.5 0-.6zm-2.2 106.3c-.1.4-.5.6-.9.6h-.3c-.5-.2-.7-.7-.6-1.2.2-.5.7-.7 1.2-.6.5.2.8.7.6 1.2zm-4.1-56.4c.2-.3.6-.4.9-.2.3.2.4.6.2.9-.1.2-.3.3-.6.3-.1 0-.3 0-.4-.1-.3-.2-.3-.6-.1-.9zm-.3 27.1c.2-.4.7-.6 1.1-.3.4.2.5.7.3 1.1-.1.3-.4.4-.7.4-.1 0-.2 0-.4-.1-.3-.2-.5-.7-.3-1.1zm-2.4 51.8c.5.1.8.6.7 1.1-.1.4-.5.7-.9.7h-.2c-.5-.1-.8-.6-.7-1.1.2-.4.6-.8 1.1-.7zm-1 13.2c0 .5-.4.8-.9.8h-.1c-.5-.1-.9-.5-.8-1 .1-.5.5-.9 1-.8.5 0 .9.5.8 1zm-1.8 23.5c.5 0 .9.4.9.9s-.4.9-.9.9-.9-.4-.9-.9.4-.9.9-.9zm-.9-11.4c0-.5.4-.9.9-.9s.9.4.9.9-.4.9-.9.9-.9-.4-.9-.9zm2.4-65.2c-.1.3-.4.5-.7.5-.1 0-.2 0-.3-.1-.4-.2-.6-.6-.4-1 .2-.4.6-.6 1-.4.4.1.6.6.4 1zm-1.3-55c.2-.3.5-.3.8-.1.3.2.3.5.1.8-.1.1-.3.2-.5.2-.1 0-.2 0-.3-.1-.3-.2-.3-.5-.1-.8zm-1.2-40.3c.1-.1.3-.1.5 0 .1.1.1.3 0 .5-.1.1-.2.1-.2.1-.1 0-.2 0-.2-.1-.2-.1-.2-.4-.1-.5zm-2.4 105.7c.4.1.6.6.5 1-.1.3-.4.5-.8.5h-.3c-.4-.1-.6-.6-.5-1 .3-.5.7-.7 1.1-.5zm-1.3-81.2c.2-.2.4-.2.6-.1.2.2.2.4.1.6-.1.1-.2.2-.4.2-.1 0-.2 0-.3-.1-.1-.1-.2-.4 0-.6zm-2.2 25.9c.2-.3.5-.3.8-.2.3.2.3.5.2.8-.1.2-.3.3-.5.3-.1 0-.2 0-.3-.1-.3-.2-.4-.5-.2-.8zm-.1 27.1c.2-.3.6-.5.9-.3.3.2.5.6.3.9-.1.2-.4.4-.6.4-.1 0-.2 0-.3-.1-.3-.1-.4-.5-.3-.9zm-2.9 51.8c.4.1.7.5.6.9-.1.4-.4.6-.8.6h-.2c-.4-.1-.7-.5-.6-.9.1-.4.5-.7 1-.6zm-1-40c-.1.3-.4.4-.6.4-.1 0-.2 0-.3-.1-.3-.1-.5-.6-.4-.9.1-.3.6-.5.9-.4.4.2.5.6.4 1zm-1.3 101c.4-.1.8.2.9.7.1.4-.3.8-.7.9h-.1c-.4 0-.7-.3-.8-.7 0-.4.3-.8.7-.9zm0-47.3c-.4-.1-.7-.5-.7-.9.1-.4.5-.7.9-.7.4.1.7.5.7.9-.1.4-.4.7-.8.7h-.1zm0-108.7c.1-.2.4-.3.6-.1.2.1.2.4.1.6-.1.1-.2.2-.4.2-.1 0-.2 0-.3-.1-.1-.1-.2-.4 0-.6zm-.4 26.4c.3.2.4.5.2.8-.1.2-.3.3-.5.3-.1 0-.2 0-.3-.1-.3-.2-.4-.5-.2-.8.2-.3.5-.4.8-.2zm-1.2-67c.1-.1.2-.1.3 0 .1.1.1.2 0 .3 0 0-.1.1-.2.1s-.1 0-.2-.1c.1 0 .1-.2.1-.3zm.5 159.9c.4 0 .8.4.7.8 0 .4-.4.7-.8.7h-.1c-.4 0-.8-.4-.7-.8.1-.4.5-.8.9-.7zm-2.5-53.8c.4.1.5.5.4.9-.1.3-.4.5-.6.5h-.2c-.4-.1-.5-.5-.4-.9.1-.5.4-.6.8-.5zm-1.4-81.3c.1-.1.3-.2.5-.1.1.1.2.3.1.5-.1.1-.2.1-.3.1-.1 0-.1 0-.2-.1-.2-.1-.2-.3-.1-.4zm-2 25.9c.1-.2.4-.3.6-.1.2.1.3.4.1.6-.1.1-.2.2-.4.2-.1 0-.2 0-.2-.1-.2-.1-.2-.4-.1-.6zm0 27.3c.1-.3.5-.4.8-.3.3.1.4.5.3.8-.1.2-.3.3-.5.3-.1 0-.2 0-.3-.1-.3-.1-.5-.4-.3-.7zm-3.4 51.6c.4.1.6.4.5.8-.1.3-.4.5-.7.5h-.1c-.4-.1-.6-.4-.5-.8.1-.4.4-.5.8-.5zm-1.1-40.7c.3.1.4.5.3.7-.1.2-.3.3-.5.3h-.2c-.3-.1-.4-.5-.3-.7.1-.3.4-.5.7-.3zm-.9-54.3c.1-.2.3-.2.5-.1s.2.3.1.5c-.1.1-.2.1-.3.1-.1 0-.1 0-.2-.1-.2 0-.2-.3-.1-.4zm-1 26.6c.1-.2.4-.3.6-.2.2.1.3.4.2.6-.1.1-.2.2-.4.2-.1 0-.2 0-.2-.1-.2 0-.3-.2-.2-.5zm-.9-67.4h.2v.2h-.2v-.2zm0 160.1c.4 0 .7.4.6.7 0 .4-.3.6-.7.6h-.1c-.4 0-.7-.4-.6-.7.1-.4.4-.7.8-.6zm-.8 12.2c.4 0 .7.3.7.7 0 .4-.3.7-.7.7-.4 0-.7-.3-.7-.7 0-.4.4-.7.7-.7zm-3.3-93.6c-.1.2-.2.3-.4.3h-.2c-.2-.1-.3-.4-.2-.6.1-.2.4-.3.6-.2.2 0 .3.3.2.5zm-.9-27.7c.1-.2.3-.2.5-.1s.2.3.1.5c-.1.1-.2.2-.3.2-.1 0-.1 0-.2-.1-.1-.2-.2-.4-.1-.5zm-3.8 79c.3.1.5.4.4.7-.1.3-.3.4-.6.4h-.1c-.3-.1-.5-.4-.4-.7.1-.3.4-.5.7-.4zm-.7-40.8c.2.1.3.4.2.6-.1.2-.2.3-.4.3h-.2c-.2-.1-.3-.4-.2-.6.1-.3.3-.4.6-.3zm-1-54.4c.1-.1.2-.1.3-.1.1.1.1.2.1.3 0 .1-.1.1-.2.1h-.1c-.1 0-.2-.2-.1-.3zm-3.2 119.8c0-.3.3-.5.6-.5s.5.3.5.6-.3.5-.6.5h-.1c-.2 0-.5-.3-.4-.6zm-1-53.7c.1-.2.3-.4.6-.3.2.1.4.4.3.6-.1.2-.2.3-.4.3h-.2c-.3-.1-.4-.4-.3-.6zm.5 65.4c.3 0 .6.3.5.6 0 .3-.3.5-.6.5s-.6-.3-.5-.6c0-.2.3-.5.6-.5zm-2.5-94.1c.2.1.2.3.2.5-.1.1-.2.2-.3.2h-.1c-.2-.1-.2-.3-.2-.5.1-.2.3-.3.4-.2zm-.6-27.1c.1-.1.2-.1.3-.1.1.1.1.2.1.3 0 .1-.1.1-.2.1h-.1c-.1-.1-.1-.2-.1-.3zm-4.1 78.9c.2.1.4.3.3.6-.1.2-.2.3-.4.3h-.1c-.2-.1-.4-.3-.3-.6 0-.2.2-.3.5-.3zm-.9-40.5c.1-.2.3-.3.4-.2.2.1.3.3.2.4-.1.1-.2.2-.3.2h-.1c-.2 0-.3-.2-.2-.4zm-3.4 65.1c0 .2-.2.4-.4.4h-.1c-.2 0-.4-.3-.4-.5s.3-.4.5-.4.4.3.4.5zm-1.8 11.7c.3 0 .4.2.4.5 0 .2-.2.4-.5.4s-.4-.2-.4-.5c.1-.2.3-.4.5-.4zm-6.3-41.8c0 .2-.2.3-.3.3h-.1c-.2 0-.3-.2-.2-.4 0-.2.2-.3.4-.2.2 0 .3.1.2.3zm-5.1-29.6c.1 0 .2.2.1.3 0 .1-.1.1-.2.1h-.1c-.1 0-.2-.2-.1-.3 0-.1.1-.2.3-.1zm-2.6-28.3c0-.1.1-.1.2-.1s.1.1.1.2l-.1.1c-.3-.1-.3-.1-.2-.2zm-.1 105.9c.2 0 .3.2.3.4s-.2.3-.3.3c-.2 0-.3-.2-.3-.4s.1-.3.3-.3zm-5.2-94.8c0-.1.1-.1.2-.1s.1.1.1.1l-.1.1c-.2.1-.2 0-.2-.1zm-8.7 22.9c.1 0 .1.1.1.1l-.1.1c-.1 0-.1-.1-.1-.1 0-.1 0-.1.1-.1zm-13.7 84.6c-.1 0-.1-.1-.1-.1 0-.1 0-.1.1-.1s.1 0 .1.1-.1.1-.1.1zm.3-12.5c.1 0 .1.1.1.1 0 .1-.1.1-.1.1-.1 0-.1-.1-.1-.1-.1 0 0-.1.1-.1zm0 24.8c-.1 0-.1 0-.1-.1s0-.1.1-.1.1 0 .1.1l-.1.1zm.8-37c.1 0 .1.1.1.1 0 .1-.1.1-.1.1-.1 0-.1-.1-.1-.1 0-.1 0-.1.1-.1zm.1 49.1c0 .1 0 .1-.1.1s-.1 0-.1-.1 0-.1.1-.1l.1.1zm1.3-61.3c.1 0 .1.1.1.1 0 .1-.1.1-.1.1-.1 0-.1-.1-.1-.1 0-.1 0-.1.1-.1zm0 73.6c-.1 0-.1 0-.1-.1s0-.1.1-.1.1 0 .1.1 0 .1-.1.1zm1.8-85.6c0-.1.1-.1.1-.1.1 0 .1.1.1.1 0 .1-.1.1-.1.1-.1 0-.1 0-.1-.1zm.2 97.7c-.1 0-.1 0-.1-.1s0-.1.1-.1.1 0 .1.1-.1.1-.1.1zm2.3-109.7c0-.1.1-.1.1-.1.1 0 .1.1.1.1 0 .1-.1.1-.1.1l-.1-.1zm.2 121.7c-.1 0-.1 0-.1-.1s0-.1.1-.1.1 0 .1.1 0 .1-.1.1zm2.9-133.6c0-.1.1-.1.1-.1.1 0 .1.1.1.1 0 .1-.1.1-.1.1-.1 0-.1 0-.1-.1zm.2 145.5c-.1 0-.1 0-.1-.1s0-.1.1-.1.1 0 .1.1c0 0 0 .1-.1.1zm3.6 11.7c-.1 0-.1 0-.1-.1s0-.1.1-.1.1 0 .1.1c0 0 0 .1-.1.1zm0-78.1c-.1 0-.2-.1-.2-.2s.1-.2.2-.2.2.1.2.2-.1.2-.2.2zm0-12.3c-.1 0-.2-.1-.2-.2s.1-.2.2-.2.2.1.2.2-.1.2-.2.2zm.6-12.7c.1 0 .2.1.2.2s-.1.2-.2.2-.2-.1-.2-.2.1-.2.2-.2zm0 37.2c-.1 0-.2-.1-.2-.2s.1-.2.2-.2.2.1.2.2-.1.2-.2.2zm1.2-49.4c.1 0 .2.1.2.3 0 .1-.1.2-.2.2s-.2-.1-.2-.3c0-.1.1-.2.2-.2zm0 61.6c-.1 0-.2-.1-.3-.2 0-.1.1-.2.2-.3.1 0 .2.1.3.2 0 .2-.1.3-.2.3zm1.8-73.7c.1 0 .2.1.2.3 0 .1-.1.2-.2.2s-.2-.1-.2-.3c-.1-.2.1-.3.2-.2zm0 85.9c-.1 0-.2-.1-.3-.2 0-.1.1-.2.2-.3.1 0 .2.1.3.2 0 .1-.1.3-.2.3zm.4-139c0-.1.1-.1.1-.1.1 0 .1.1.1.1l-.1.1c-.1 0-.1 0-.1-.1zm.3 191.9c0 .1 0 .1-.1.1 0 0-.1 0-.1-.1s0-.1.1-.1c0 0 0 .1.1.1zm1.6-150.9c.1 0 .2.1.2.3 0 .1-.1.2-.2.2s-.2-.1-.2-.3c0-.1.1-.2.2-.2zm.1 110s-.1 0 0 0c-.2 0-.2-.1-.3-.2 0-.1.1-.2.2-.3.1 0 .2 0 .3.2 0 .2-.1.3-.2.3zm2.6-121.7c0-.1.2-.2.3-.2.1 0 .2.2.2.3 0 .1-.1.2-.2.2h-.1c-.1-.1-.2-.2-.2-.3zm.3 174.1c-.1 0-.1 0-.1-.1s0-.1.1-.1.1 0 .1.1c0 0-.1 0-.1.1zm0-40.5c-.2 0-.3-.1-.3-.2s0-.2.2-.3c.1 0 .2 0 .3.2 0 .2 0 .3-.2.3zm3.3-145.4c0-.1.2-.2.3-.1.1 0 .2.2.1.3 0 .1-.1.2-.2.2h-.1c-.1-.1-.2-.3-.1-.4zm.4 156.9c0 .1 0 .2-.1.3h-.1c-.1 0-.2-.1-.2-.2s0-.2.1-.3c.2 0 .3.1.3.2zm.7-78.4c0-.2.2-.3.3-.3.2 0 .3.1.3.3 0 .2-.2.3-.3.3-.2.1-.3-.1-.3-.3zm.8 118.4c0 .1 0 .1 0 0-.1 0-.1 0-.2-.1 0-.1 0-.1.1-.2.1 0 .1 0 .2.1 0 .2 0 .2-.1.2zm-.2-105.8c-.2 0-.3-.1-.4-.3 0-.2.1-.4.3-.4.2 0 .3.1.4.3.1.3-.1.4-.3.4zm.6-37.1c0-.2.2-.3.4-.3s.3.2.3.4-.2.3-.3.3c-.3-.1-.4-.2-.4-.4zm.4 49.4c-.2 0-.4-.1-.4-.3 0-.2.1-.4.3-.4.2 0 .4.1.4.3 0 .2-.1.3-.3.4zm1.6-61.9c.2 0 .3.2.3.4s-.2.3-.3.3h-.1c-.2 0-.3-.2-.3-.4s.2-.3.4-.3zm.1 127.2s-.1 0 0 0c-.2 0-.3 0-.3-.1s0-.2.1-.3c.1 0 .2 0 .3.1.1.1 0 .3-.1.3zm-.1-53.2s-.1 0 0 0c-.2 0-.4-.1-.4-.3 0-.2.1-.4.3-.4.2 0 .4.1.4.3 0 .2-.1.4-.3.4zm1.8-85.8c0-.2.2-.3.4-.3s.3.2.3.4-.2.3-.3.3h-.1c-.3 0-.4-.2-.3-.4zm.4 97.9s-.1 0 0 0c-.2 0-.4-.1-.4-.3 0-.2.1-.4.3-.4.2 0 .4.1.4.3 0 .2-.1.3-.3.4zm1.1 80.2h-.2v-.2h.2c.1.1.1.1 0 .2zm.1-258.6c0 .1-.1.1 0 0-.1.1-.1.1-.2 0-.1 0-.1-.1 0-.2 0-.1.1-.1.2 0v.2zm1 27.8c.1-.1.2-.2.3-.1.1.1.2.2.1.3 0 .1-.1.1-.2.1h-.1c-.1 0-.1-.2-.1-.3zm.4 203c-.1 0-.1.1 0 0-.2 0-.3 0-.3-.1s0-.3.1-.3.2 0 .3.1c0 .2 0 .3-.1.3zm.2-40.5s-.1 0 0 0c-.2 0-.4-.1-.4-.2 0-.2.1-.4.2-.4.2 0 .4.1.4.2.1.2 0 .4-.2.4zm3-133.6c.1-.2.2-.3.4-.2.2.1.3.2.2.4 0 .1-.2.2-.3.2h-.1c-.2 0-.3-.2-.2-.4zm.5 145.4h-.1c-.1 0-.3-.1-.3-.2-.1-.2 0-.4.2-.4.2-.1.4 0 .4.2 0 .1-.1.3-.2.4zm1.1 67c-.1 0-.1.1 0 0h-.2v-.2h.2v.2zm0-279.6c-.1.1-.1 0-.2 0s-.1-.1 0-.2c0-.1.1-.1.2 0 0 0 .1.1 0 .2zm.1 27.2c.1-.1.2-.2.3-.1.1.1.2.2.1.3 0 .1-.1.1-.2.1h-.1c-.1-.1-.2-.2-.1-.3zm.3 225.2h-.1c-.1 0-.2 0-.2-.1-.1-.1 0-.3.1-.3.1-.1.2 0 .3.1 0 .1 0 .3-.1.3zm.4-118.7c0-.3.2-.4.5-.4s.4.2.4.5c0 .2-.2.4-.5.4-.2 0-.4-.3-.4-.5zm.5 12.7c-.2 0-.5-.2-.5-.4 0-.3.2-.5.4-.5.3 0 .5.2.5.4 0 .3-.2.5-.4.5zm.7 12.3c-.1 0-.1 0 0 0-.3 0-.5-.2-.5-.4 0-.3.2-.5.4-.5.3 0 .5.2.5.4s-.2.5-.4.5zm.4-103.1c.1-.2.3-.3.4-.2.2.1.3.3.2.4-.1.1-.2.2-.3.2h-.1c-.2 0-.2-.2-.2-.4zm.5 168.6h-.1c-.1 0-.3-.1-.3-.2-.1-.2 0-.4.2-.4.2-.1.4 0 .4.2.1.1 0 .3-.2.4zm.4-53.3c-.3 0-.5-.2-.5-.4 0-.3.1-.5.4-.5.3 0 .5.1.5.4 0 .2-.1.4-.4.5zm2-74.2c.2 0 .4.3.4.5s-.2.4-.4.4h-.1c-.2 0-.4-.3-.4-.5 0-.3.2-.4.5-.4zm.4 85.7c0 .2-.1.5-.4.5h-.1c-.2 0-.4-.1-.4-.4 0-.2.1-.5.4-.5.2 0 .4.2.5.4zm.4 80.8h-.1c-.1 0-.2 0-.2-.1-.1-.1 0-.2.1-.3.1-.1.3 0 .3.1.1.1 0 .3-.1.3zm.1-246.7c0 .1-.1.1-.2.1h-.1c-.1-.1-.1-.2-.1-.3.1-.1.2-.1.3-.1.2.1.2.2.1.3zm.5 273.4c-.1 0-.1 0 0 0h-.2v-.2h.2v.2zm0-300.2c-.1.1-.1 0-.2 0s-.1-.1 0-.2c0-.1.1-.1.2 0s.1.1 0 .2zm.8 245.8h-.1c-.1 0-.3-.1-.3-.2-.1-.2 0-.4.2-.4.2-.1.4 0 .4.2.1.1 0 .3-.2.4zm.5-40.6h-.1c-.2 0-.4-.1-.4-.3-.1-.2.1-.5.3-.6.2-.1.5.1.6.3 0 .3-.1.6-.4.6zm2.7-121.7c.1-.2.3-.4.6-.3.2.1.4.3.3.6-.1.2-.2.3-.4.3h-.1c-.3-.1-.5-.3-.4-.6zm.6 133.5h-.1c-.2 0-.4-.1-.4-.3-.1-.2.1-.5.3-.6.2-.1.5.1.6.3 0 .3-.1.6-.4.6zm1.1 67.1h-.1c-.1 0-.1 0-.2-.1s0-.2.1-.3c.1-.1.2 0 .3.1 0 .1 0 .2-.1.3zm.3-27.2h-.2c-.1 0-.2-.1-.3-.2-.1-.2 0-.4.1-.5.2-.1.4 0 .5.1.2.3.1.5-.1.6zm1.1 53.2c0 .1 0 .1 0 0h-.2v-.2h.2c.1.1.1.2 0 .2zm.1-320.1c0 .1 0 .1 0 0h-.2s-.1-.1 0-.2c0 0 .1-.1.2 0 0 .1.1.2 0 .2zm.4 160.2c0-.3.3-.6.6-.6s.6.3.6.6-.3.6-.6.6c-.4-.1-.6-.3-.6-.6zm1 78.5h-.2c-.2 0-.4-.1-.4-.3-.1-.2 0-.5.3-.6.2-.1.5 0 .6.3.1.2 0 .5-.3.6zm-.1-65.7c-.3 0-.6-.2-.6-.5s.2-.6.5-.6.6.2.6.5c.1.3-.2.6-.5.6zm1.6 11.6c0 .3-.2.6-.5.6h-.1c-.3 0-.5-.2-.6-.5 0-.3.2-.6.5-.6.4-.1.7.2.7.5zM303 358c.3.1.5.3.5.7 0 .3-.3.5-.6.5h-.1c-.3-.1-.5-.3-.5-.7.1-.4.4-.6.7-.5zm-.6 73.9c-.1-.3.2-.6.5-.7.3-.1.6.2.7.5.1.3-.1.6-.5.7h-.1c-.3 0-.6-.2-.6-.5zm1 80.8h-.2c-.1 0-.2-.1-.3-.2-.1-.2 0-.4.1-.5.2-.1.4 0 .5.1.2.3.1.5-.1.6zm.2-234.8c-.1.1-.2.2-.3.2h-.2c-.2-.1-.2-.3-.1-.5s.3-.2.5-.1c.1 0 .2.2.1.4zm.5 261.4h-.1c-.1 0-.1 0-.2-.1s0-.2.1-.3c.1-.1.2 0 .3.1 0 .1 0 .2-.1.3zm.7-54.3h-.2c-.2 0-.3-.1-.4-.3-.1-.2 0-.5.2-.6.2-.1.5 0 .6.2.2.3 0 .6-.2.7zm.7-40.6h-.1c-.3 0-.5-.2-.6-.4-.1-.3.1-.6.4-.7.3-.1.6.1.7.4.1.3-.1.6-.4.7zm.8 120.3c0 .1 0 .1 0 0h-.2v-.2h.2c.1.1.1.2 0 .2zm.1-339.3s0 .1 0 0h-.2s-.1-.1 0-.2c0 0 .1-.1.2 0s.1.2 0 .2zm1.6 109.1c.1-.3.4-.5.7-.4.3.1.5.4.4.7-.1.2-.3.4-.5.4h-.2c-.3-.1-.5-.4-.4-.7zm.7 121.7h-.2c-.2 0-.5-.2-.5-.4-.1-.3.1-.6.4-.7.3-.1.6.1.7.4.1.3-.1.6-.4.7zm1.1 67c-.1 0-.1.1-.2.1s-.2-.1-.3-.2c-.1-.2-.1-.4.1-.5.2-.1.4-.1.5.1.1.2 0 .4-.1.5zm.2-27.1h-.2c-.2 0-.3-.1-.4-.3-.1-.2 0-.5.2-.6.2-.1.5 0 .6.2.1.3.1.6-.2.7zm1.3 53h-.1c-.1 0-.1 0-.2-.1s-.1-.2 0-.3c.1-.1.2-.1.3 0 .2.2.2.4 0 .4zm.2-307.9c0 .1-.1.1-.2.1h-.1c-.1-.1-.1-.2 0-.3.1-.1.2-.1.3 0v.2zm.3 81.6c.1-.3.4-.4.7-.3.3.1.4.4.3.7-.1.2-.3.4-.5.4h-.2c-.2-.2-.4-.5-.3-.8zm.8 145h-.2c-.2 0-.4-.1-.5-.4-.1-.3 0-.6.3-.7.3-.1.6 0 .7.3.2.4 0 .7-.3.8zm.9-65.9c-.4 0-.7-.3-.7-.7 0-.4.3-.7.7-.7.4 0 .7.3.7.7 0 .4-.3.7-.7.7zm.9 172.1h-.2v-.2h.2c.1.1 0 .1 0 .2zm-.1-159.8c-.4 0-.7-.3-.7-.6 0-.4.2-.7.6-.7.4 0 .7.2.7.6.1.3-.2.6-.6.7zm1.6-50.3c.4.1.6.4.6.8-.1.3-.3.6-.7.6h-.1c-.4-.1-.6-.4-.6-.8s.4-.7.8-.6zm-.2 61.1c.4-.1.7.2.8.6.1.4-.2.7-.6.8h-.1c-.3 0-.6-.2-.7-.6-.1-.4.2-.8.6-.8zm.1 81.9c-.1 0-.1.1-.2.1-.2 0-.3-.1-.4-.2-.1-.2 0-.5.2-.6.2-.1.5 0 .6.2.1.1.1.3-.2.5zm.8 26.4c-.1 0-.1.1-.2.1s-.2-.1-.3-.1c-.1-.2-.1-.4.1-.5.2-.1.4-.1.5.1.1.1.1.3-.1.4zm.6-54.1h-.2c-.2 0-.4-.1-.5-.3-.1-.3 0-.6.3-.7.3-.1.6 0 .7.3.1.3 0 .6-.3.7zm1-40.8h-.1c-.3 0-.6-.2-.7-.5-.1-.4.1-.7.5-.8.4-.1.7.1.8.5.1.3-.1.7-.5.8zm.9 120.3-.1.1c-.1 0-.1 0-.2-.1s-.1-.2 0-.3c.1-.1.2-.1.3 0 .1 0 .1.2 0 .3zm.1-327c0 .1-.1.1-.2.1s-.1 0-.1-.1c-.1-.1-.1-.2 0-.3.1-.1.2-.1.3 0 .1 0 .1.2 0 .3zm1.2 108.7c.1-.4.5-.6.8-.5.4.1.6.5.5.8-.1.3-.4.5-.7.5h-.2c-.3 0-.5-.4-.4-.8zm.8 109.9h-.2c-.3 0-.6-.2-.7-.5-.1-.4.1-.7.5-.8.4-.1.7.1.8.5.2.3 0 .7-.4.8zm1 67c-.1 0-.2.1-.2.1-.1 0-.3-.1-.4-.2-.1-.2-.1-.5.1-.6.2-.1.5-.1.6.1.2.2.2.5-.1.6zm.2-27c-.1 0-.2.1-.3.1-.2 0-.4-.1-.5-.3-.1-.3 0-.6.3-.8.3-.1.6 0 .8.3.1.2 0 .5-.3.7zm1.6 52.8c-.1.1-.1.1-.2.1s-.2 0-.3-.1c-.1-.1-.1-.4.1-.5.1-.1.4-.1.5.1.1.1.1.3-.1.4zm1-81.2h-.2c-.3 0-.5-.2-.6-.5-.1-.4.1-.7.4-.9.4-.1.7.1.9.4.1.5-.1.9-.5 1zm1.3-66.8c0-.4.4-.8.8-.8s.8.4.8.8-.4.8-.8.8c-.5 0-.8-.3-.8-.8zm1.1 11.5c.4 0 .8.3.8.7 0 .4-.3.8-.7.8h-.1c-.4 0-.8-.3-.8-.7.1-.4.4-.8.8-.8zm-.1 161.2s-.1.1-.2.1-.1 0-.2-.1-.1-.2 0-.3c.1-.1.2-.1.3 0 .2.1.2.2.1.3zm1-66.8c-.1.1-.2.1-.3.1-.2 0-.4-.1-.5-.3-.2-.3-.1-.6.2-.8.3-.2.6-.1.8.2.1.3 0 .7-.2.8zm.9 26.4c-.1.1-.2.1-.3.1-.1 0-.3-.1-.4-.2-.1-.2-.1-.5.1-.6.2-.1.5-.1.6.1.3.2.2.5 0 .6zm.4-54.1c-.1 0-.2.1-.3.1-.3 0-.5-.2-.6-.4-.1-.3 0-.7.4-.9.3-.1.7 0 .9.4.1.3-.1.7-.4.8zm1.3-40.8h-.2c-.4 0-.7-.3-.8-.6-.1-.4.2-.8.6-.9.4-.1.8.2.9.6.2.4-.1.8-.5.9zm1 120c-.1.1-.1.1-.2.1s-.2 0-.3-.1c-.1-.1-.1-.4 0-.5.1-.1.4-.1.5 0 .1.2.1.4 0 .5zM332 238c-.1.1-.2.1-.3.1-.1 0-.2 0-.2-.1-.1-.1-.2-.3 0-.5.1-.1.3-.2.5 0 .1.1.1.3 0 .5zm.8 108.4c.1-.4.6-.7 1-.6.4.1.7.6.6 1-.1.4-.4.6-.8.6h-.2c-.5-.1-.7-.6-.6-1zm0 97.4c-.1-.4.1-.9.6-1 .4-.1.9.1 1 .6.1.5-.1.9-.6 1h-.2c-.4 0-.7-.2-.8-.6zm1.9 67.6c-.1.1-.2.1-.3.1-.2 0-.4-.1-.5-.3-.2-.3-.1-.6.2-.8.3-.2.6-.1.8.2.2.3.1.7-.2.8zm.1-27c-.1 0-.2.1-.3.1-.3 0-.5-.1-.6-.4-.2-.3 0-.7.3-.9.3-.2.7 0 .9.3.1.3 0 .7-.3.9zm1.9 52.7c-.1.1-.2.1-.3.1-.1 0-.3-.1-.4-.2-.2-.2-.1-.5.1-.6.2-.2.5-.1.6.1.2.2.2.5 0 .6zm.8-81h-.3c-.3 0-.6-.2-.8-.5-.1-.4.1-.9.5-1 .4-.1.9.1 1 .5.2.4 0 .9-.4 1zm2.2-160.9c.2-.3.6-.4.9-.2.3.2.4.6.2.9-.1.2-.4.3-.6.3-.1 0-.2 0-.3-.1-.3-.1-.4-.6-.2-.9zm.5 266.3c-.1.1-.1.1-.2.1s-.2 0-.2-.1c-.1-.1-.1-.4 0-.5.1-.1.3-.1.5 0 .1.2.1.4-.1.5zm.5-66.4c-.1.1-.2.1-.3.1-.2 0-.5-.1-.6-.3-.2-.3-.1-.7.2-.9.3-.2.7-.1.9.2.2.3.1.8-.2.9zm1.1 26.4c-.1.1-.2.1-.3.1-.2 0-.3-.1-.5-.2-.2-.3-.1-.6.1-.8.3-.2.6-.1.8.1.2.2.2.6-.1.8zm.1-54c-.1 0-.2.1-.3.1-.3 0-.6-.2-.7-.5-.2-.4 0-.9.4-1 .4-.2.9 0 1 .4.2.4 0 .8-.4 1zm-.1-53.1h-.1c-.5 0-.9-.3-.9-.8-.1-.5.3-.9.8-1 .5-.1 1 .3 1 .8.1.5-.3 1-.8 1zm1.7 12.2c-.4 0-.8-.3-.9-.7-.1-.5.2-1 .7-1.1.5-.1 1 .2 1.1.7.1.5-.2 1-.7 1.1h-.2zm1.2 119.8c-.1.1-.2.1-.3.1-.1 0-.2-.1-.3-.1-.2-.2-.2-.5 0-.6.2-.2.5-.2.6 0 .2.1.2.4 0 .6zm.1-302.1c-.1.1-.2.1-.3.1-.1 0-.2 0-.3-.1-.2-.2-.2-.5 0-.6.2-.2.5-.2.6 0 .1.2.1.4 0 .6zm.4 108.1c.1-.5.6-.8 1.1-.7.5.1.8.6.7 1.1-.1.4-.5.7-.9.7h-.2c-.5-.1-.8-.6-.7-1.1zm0 85.5c-.1-.5.2-1 .7-1.1.5-.1 1 .2 1.1.7.1.5-.2 1-.7 1.1h-.2c-.4-.1-.7-.3-.9-.7zm2 67.6c-.1.1-.3.1-.4.1-.2 0-.4-.1-.6-.3-.2-.3-.1-.7.2-1 .3-.2.7-.1 1 .2.2.4.1.8-.2 1zm-.1-26.9c-.1.1-.2.1-.4.1-.3 0-.6-.2-.7-.4-.2-.4 0-.9.4-1.1.4-.2.9 0 1.1.3.2.4 0 .9-.4 1.1zm1.5-219.4c.2-.2.6-.3.8-.1.2.2.3.6.1.8-.1.1-.3.2-.4.2-.1 0-.3 0-.4-.1-.3-.2-.3-.6-.1-.8zm.9 271.9c-.1.1-.2.1-.4.1s-.3-.1-.4-.2c-.2-.2-.2-.6.1-.8.2-.2.6-.2.8.1.1.2.1.6-.1.8zm.4-80.8h-.3c-.4 0-.7-.2-.9-.6-.2-.5.1-1 .6-1.2.5-.2 1 .1 1.2.6.1.5-.1 1-.6 1.2zm2.1-149.2c.2-.4.7-.5 1.1-.3.4.2.5.7.3 1.1-.1.3-.4.4-.7.4-.1 0-.3 0-.4-.1-.4-.2-.6-.7-.3-1.1zm.3 186.8c.4-.2.9-.1 1.1.3.2.4.1.9-.3 1.1-.1.1-.3.1-.4.1-.3 0-.5-.1-.7-.4-.2-.3-.1-.8.3-1.1zm.9 67.3c-.1.1-.2.1-.3.1-.1 0-.2 0-.3-.1-.2-.2-.2-.5 0-.6.2-.2.5-.2.6 0 .2.2.2.4 0 .6zm1.2-39.8c-.1.1-.3.1-.4.1-.2 0-.4-.1-.5-.3-.2-.3-.2-.7.1-1 .3-.2.7-.2 1 .1.2.5.1.9-.2 1.1zm-.1-53.7c-.1 0-.2.1-.4.1-.4 0-.7-.2-.8-.6-.2-.5 0-1 .5-1.2.5-.2 1 0 1.2.5.2.5 0 1-.5 1.2zm.6-53.3c-.5 0-1-.4-1-.9 0-.6.4-1.1.9-1.1.6 0 1.1.4 1.1.9.1.6-.4 1.1-1 1.1.1 0 0 0 0 0zm1.4 12.2c-.5 0-.9-.4-1-.9-.1-.6.3-1.1.8-1.2.6-.1 1.1.3 1.2.8.1.6-.3 1.1-.9 1.2 0 .1 0 .1-.1.1zm1.3 119.6c-.1.1-.3.2-.4.2-.2 0-.3-.1-.4-.2-.2-.2-.2-.6 0-.8.2-.2.6-.2.8 0 .3.2.3.6 0 .8zm.1-108.4c-.1-.6.2-1.1.8-1.2.6-.1 1.1.2 1.2.8.1.6-.2 1.1-.8 1.2h-.2c-.4 0-.9-.3-1-.8zm.6 40.6c-.2-.4 0-1 .4-1.2.4-.2 1-.1 1.2.4.2.4 0 1-.4 1.2-.1.1-.3.1-.4.1-.3 0-.6-.2-.8-.5zm1.4 27.2c-.1.1-.3.1-.4.1-.3 0-.5-.1-.7-.3-.3-.4-.2-.9.2-1.1.4-.3.9-.2 1.1.2.3.4.2.9-.2 1.1zm1.3-153.1c.2-.5.8-.8 1.3-.7.5.2.8.8.7 1.3-.1.4-.5.7-1 .7h-.3c-.6-.2-.9-.7-.7-1.3zm1.2 178.4c-.1.1-.3.2-.4.2-.2 0-.4-.1-.5-.2-.2-.3-.2-.7.1-1 .3-.2.7-.2 1 .1.1.2.1.7-.2.9zm.2-80.5h-.3c-.4 0-.8-.3-1-.7-.2-.5.1-1.1.7-1.3.5-.2 1.1.1 1.3.7.1.5-.2 1.1-.7 1.3zm1.8-137.4c.3-.4.8-.6 1.3-.3.4.3.6.8.3 1.2-.2.3-.5.4-.8.4-.2 0-.3 0-.5-.1-.4-.2-.5-.7-.3-1.2zm.1 176.2c-.3-.4-.1-1 .3-1.3.4-.3 1-.1 1.3.3.3.4.1 1-.3 1.3-.1.1-.3.1-.5.1-.3 0-.6-.2-.8-.4zm2 65.7c-.1.1-.3.2-.4.2-.1 0-.3-.1-.4-.2-.2-.2-.2-.6 0-.8.2-.2.6-.2.8 0 .2.2.2.5 0 .8zm.8-39.5c-.1.1-.3.2-.5.2s-.5-.1-.6-.3c-.3-.3-.2-.8.1-1.1.3-.3.8-.2 1.1.1.3.4.2.9-.1 1.1zm0-108.1c0-.6.5-1.2 1.1-1.2.6 0 1.2.5 1.2 1.1 0 .6-.5 1.2-1.1 1.2-.7 0-1.2-.5-1.2-1.1zm1 12.3c-.1-.6.4-1.2 1-1.3.6-.1 1.2.4 1.3 1 .1.6-.4 1.2-1 1.3h-.1c-.6 0-1.1-.4-1.2-1zm2.5 120.3c-.1.1-.3.2-.5.2s-.4-.1-.5-.2c-.3-.3-.3-.7 0-1 .3-.3.7-.3 1 0 .2.3.2.7 0 1zm1.7-40.2c-.2.1-.3.2-.5.2-.3 0-.6-.1-.7-.4-.3-.4-.2-1 .2-1.3.4-.3 1-.2 1.3.2.2.4.1 1-.3 1.3zm1.1-141.2c.2-.6.8-.9 1.4-.7.6.2.9.8.7 1.4-.2.5-.6.8-1.1.8-.1 0-.2 0-.3-.1-.6-.2-.9-.8-.7-1.4zm1.6 166.3c-.2.1-.3.2-.5.2s-.4-.1-.6-.3c-.3-.3-.3-.8.1-1.1.3-.3.8-.3 1.1.1.3.3.3.8-.1 1.1zm-.2-80.3c-.1 0-.2.1-.3.1-.5 0-.9-.3-1.1-.8-.2-.6.1-1.2.7-1.4.6-.2 1.2.1 1.4.7.3.6-.1 1.2-.7 1.4zm1.7-125.6c.3-.5.9-.6 1.4-.3.5.3.6.9.3 1.4-.2.3-.5.5-.9.5-.2 0-.4 0-.5-.1-.4-.4-.6-1-.3-1.5zm.9 164.8c-.3 0-.7-.2-.9-.5-.3-.5-.1-1.1.3-1.4.5-.3 1.1-.1 1.4.3.3.5.1 1.1-.3 1.4-.1.2-.3.2-.5.2zm2.1 64.6c-.1.2-.3.2-.5.2s-.3-.1-.5-.2c-.3-.3-.3-.7-.1-1 .3-.3.7-.3 1-.1.3.4.3.9.1 1.1zm.3-38.9c-.2.1-.4.2-.6.2-.3 0-.5-.1-.7-.3-.3-.4-.3-1 .1-1.3.4-.3 1-.3 1.3.1.3.4.3 1-.1 1.3zm.7-108.3c0-.7.6-1.3 1.3-1.3.7 0 1.3.6 1.3 1.3 0 .7-.6 1.3-1.3 1.3-.7 0-1.3-.6-1.3-1.3zm.6 12.4c-.1-.7.4-1.3 1.1-1.4.7-.1 1.3.4 1.4 1.1.1.7-.4 1.3-1.1 1.4h-.1c-.7 0-1.2-.5-1.3-1.1zm2.5 120.1c-.2.2-.4.2-.6.2-.2 0-.4-.1-.6-.2-.3-.3-.3-.8 0-1.1.3-.3.8-.3 1.1 0 .4.2.4.7.1 1.1zm-.4-68.5c.6-.3 1.2-.1 1.5.5.3.6.1 1.2-.5 1.5-.2.1-.3.1-.5.1-.4 0-.8-.2-1-.6-.2-.5 0-1.2.5-1.5zm1.7 28.6c-.2.1-.4.2-.6.2-.3 0-.6-.1-.8-.4-.3-.5-.2-1.1.2-1.4.5-.3 1.1-.2 1.4.2.3.5.2 1.1-.2 1.4zm-.6-67h-.2c-.6 0-1.1-.4-1.2-1-.1-.7.3-1.3 1-1.5.7-.1 1.3.3 1.5 1 0 .8-.4 1.4-1.1 1.5zm1.4-62.2c.2-.7.9-1 1.6-.8.7.2 1 .9.8 1.5-.2.6-.7.9-1.2.9h-.3c-.7-.3-1.1-1-.9-1.6zm.1 73.3c-.2-.7.2-1.4.8-1.6.7-.2 1.4.2 1.6.8.2.7-.2 1.4-.8 1.6-.1 0-.2.1-.4.1-.6 0-1.1-.4-1.2-.9zm2.1 80.8c-.2.2-.4.2-.6.2-.2 0-.5-.1-.7-.3-.3-.4-.3-.9 0-1.3.4-.3.9-.3 1.3 0 .4.4.4 1 0 1.4zm.9-193.8c.3-.5 1-.7 1.6-.4.5.3.7 1 .4 1.6-.2.3-.6.5-1 .5-.2 0-.4-.1-.6-.2-.6-.2-.7-.9-.4-1.5zm1.6 152.9c-.2.1-.4.2-.6.2-.4 0-.7-.2-1-.5-.3-.5-.2-1.2.4-1.6.5-.3 1.2-.2 1.6.4.3.5.2 1.2-.4 1.5zm.8 24.1c.4-.4 1.1-.3 1.4.1.4.4.3 1.1-.1 1.4-.2.2-.4.2-.7.2-.3 0-.6-.1-.8-.4-.3-.3-.2-1 .2-1.3z" class="readepi_svg__st0" style="fill:#18bed2" transform="translate(-35.216 -52.255) scale(.26458)"/>
  <path d="M453.4 375.3c-1-.3-2 .2-2.3 1.2-.3 1 .2 2 1.2 2.3.2.1.4.1.5.1.8 0 1.5-.5 1.7-1.3.4-1-.2-2-1.1-2.3zm5.9 48.3c-.5-.9-1.6-1.2-2.5-.7-.9.5-1.2 1.6-.7 2.5.3.6 1 .9 1.6.9.3 0 .6-.1.9-.2.9-.5 1.2-1.6.7-2.5zm4-69.1c-.7.8-.6 1.9.2 2.6.3.3.7.4 1.1.4v-3.6c-.5 0-1 .2-1.3.6zm-7.2 10.3c-.5.9-.2 2 .7 2.5.3.2.6.2.9.2.6 0 1.3-.3 1.6-.9.5-.9.2-2-.7-2.5-.9-.5-2-.1-2.5.7zm-5.9 34.6c-1 .1-1.7 1-1.6 2 .1.9.9 1.6 1.8 1.6h.2c1-.1 1.7-1 1.6-2-.1-.9-1-1.7-2-1.6zm.4-12.2c-1-.1-1.9.6-2 1.6-.1 1 .6 1.9 1.6 2h.2c.9 0 1.7-.7 1.8-1.6.1-1-.6-1.9-1.6-2zm12.8 48.5c.3.4.8.6 1.2.6v-3.6c-.4 0-.7.2-1.1.4-.7.7-.8 1.9-.1 2.6zm-11.1-24.2c-1 .3-1.5 1.3-1.2 2.3.2.8 1 1.3 1.7 1.3.2 0 .4 0 .5-.1 1-.3 1.5-1.3 1.2-2.3-.2-1-1.2-1.5-2.2-1.2zm-15.9-14.7c.9 0 1.7-.8 1.7-1.7 0-.9-.8-1.7-1.7-1.7-.9 0-1.7.8-1.7 1.7 0 .9.8 1.7 1.7 1.7zm10.5 32.8c-.4-.8-1.5-1.1-2.3-.7-.8.4-1.1 1.5-.7 2.3.3.6.9.9 1.5.9.3 0 .6-.1.8-.2.8-.4 1.1-1.5.7-2.3zm-8.1-59.1c-.3.9.2 1.9 1.1 2.2.2.1.4.1.6.1.7 0 1.4-.4 1.6-1.2.3-.9-.2-1.9-1.1-2.2-.9-.3-1.9.2-2.2 1.1zm.3 36.6c-.2-.9-1-1.6-2-1.4-.9.2-1.6 1-1.4 2 .1.8.9 1.4 1.7 1.4h.3c1-.2 1.6-1.1 1.4-2zm3 11.6c-.3-.9-1.3-1.4-2.2-1.1-.9.3-1.4 1.3-1.1 2.2.2.7.9 1.2 1.6 1.2.2 0 .4 0 .6-.1.9-.4 1.4-1.3 1.1-2.2zm8.9-67.8c.3.2.7.4 1 .4.5 0 1-.2 1.3-.7.6-.7.4-1.8-.3-2.4-.7-.6-1.8-.4-2.4.3-.5.7-.4 1.8.4 2.4zm-15.3 31.7c-.2.9.5 1.8 1.4 2h.3c.8 0 1.5-.6 1.7-1.4.2-.9-.5-1.8-1.4-2-.9-.1-1.8.5-2 1.4zm24.6-40.4c.4 0 .8-.1 1.2-.5.7-.6.7-1.7.1-2.4s-1.7-.7-2.4-.1-.7 1.7-.1 2.4c.3.4.8.6 1.2.6zM443.8 359c-.4.8-.1 1.9.7 2.3.3.1.5.2.8.2.6 0 1.2-.3 1.5-.9.4-.8.1-1.9-.7-2.3-.8-.5-1.8-.1-2.3.7zm15.4 89.5c-.6.7-.6 1.8.1 2.4.3.3.7.4 1.2.4s.9-.2 1.3-.6c.6-.7.6-1.8-.1-2.4-.8-.5-1.9-.5-2.5.2zm-6-6.5c.7-.6.9-1.7.3-2.4-.6-.7-1.7-.9-2.4-.3-.7.6-.9 1.7-.3 2.4.3.4.8.7 1.3.7.4 0 .7-.1 1.1-.4zm-5.8-106.4c.4 0 .8-.2 1.1-.5.6-.6.6-1.6 0-2.3-.6-.6-1.6-.6-2.3 0-.6.6-.6 1.6 0 2.3.4.4.8.5 1.2.5zM426.2 413c-.2-.9-1-1.4-1.9-1.2-.9.2-1.4 1-1.2 1.9.2.8.8 1.3 1.6 1.3h.3c.9-.2 1.4-1.1 1.2-2zm30.3-85.6c.3 0 .7-.1 1-.3.7-.5.8-1.5.3-2.2-.5-.7-1.5-.8-2.2-.3-.7.5-.8 1.5-.3 2.2.3.4.7.6 1.2.6zm-33.6 72.3c-.9.1-1.5.8-1.5 1.7.1.8.8 1.5 1.6 1.5h.1c.9-.1 1.5-.8 1.5-1.7 0-.9-.9-1.6-1.7-1.5zm.2-12.3c-.9-.1-1.6.6-1.7 1.5-.1.9.6 1.6 1.5 1.7h.1c.8 0 1.5-.6 1.6-1.5 0-.9-.6-1.7-1.5-1.7zm15.5 58.1c-.7.5-.9 1.5-.3 2.2.3.4.8.7 1.3.7.3 0 .7-.1.9-.3.7-.5.9-1.5.3-2.2-.5-.8-1.5-1-2.2-.4zm-12.1-81c-.3.8.1 1.7 1 2 .2.1.4.1.5.1.7 0 1.3-.4 1.5-1 .3-.8-.1-1.7-1-2-.8-.4-1.7.1-2 .9zm8 71.1c-.4-.8-1.4-1.1-2.2-.7-.8.4-1.1 1.4-.7 2.2.3.5.8.8 1.4.8.3 0 .5-.1.7-.2.9-.3 1.2-1.3.8-2.1zm-10.2-57.2h.3c.7 0 1.4-.5 1.6-1.3.2-.9-.4-1.7-1.2-1.9-.9-.2-1.7.4-1.9 1.2-.2 1 .4 1.8 1.2 2zm24.3 76.6c-.6-.6-1.6-.7-2.2 0-.6.6-.7 1.6 0 2.3.3.3.7.5 1.1.5.4 0 .8-.1 1.1-.4.6-.7.6-1.7 0-2.4zm-16.3-99.8c.2.1.5.2.7.2.6 0 1.1-.3 1.4-.8.4-.8.1-1.7-.7-2.2-.8-.4-1.7-.1-2.2.7-.3.8 0 1.7.8 2.1zm-2.8 69.4c-.3-.8-1.2-1.3-2-1-.8.3-1.3 1.2-1 2 .2.6.8 1 1.5 1 .2 0 .4 0 .5-.1.9-.1 1.4-1.1 1-1.9zm28 38.5c-.7-.5-1.7-.4-2.2.3-.5.7-.4 1.7.3 2.2.3.2.6.3 1 .3.5 0 .9-.2 1.3-.6.5-.7.3-1.7-.4-2.2zm-18.9-118.4c.3.2.6.3.9.3.5 0 1-.2 1.3-.7.5-.7.4-1.7-.4-2.2-.7-.5-1.7-.4-2.2.4-.5.7-.3 1.7.4 2.2zm-12.8-8.1c-.5.7-.3 1.6.4 2.1.3.2.5.3.8.3.5 0 .9-.2 1.2-.6.5-.7.3-1.6-.4-2.1-.6-.6-1.5-.4-2 .3zm17.5-16.1c.3 0 .7-.1 1-.4.6-.5.7-1.5.1-2.1-.5-.6-1.5-.7-2.1-.1-.6.5-.7 1.5-.1 2.1.2.4.7.5 1.1.5zm9.6-7.5c.3 0 .6-.1.8-.3.7-.5.8-1.4.4-2.1-.5-.7-1.4-.8-2.1-.4-.7.5-.8 1.4-.4 2.1.4.5.8.7 1.3.7zm-17.1 148.4c-.5-.6-1.5-.7-2.1-.1-.6.5-.7 1.5-.1 2.1.3.3.7.5 1.1.5.3 0 .7-.1 1-.4.5-.5.6-1.5.1-2.1zm-26.1-55.5c-.8.1-1.4.8-1.3 1.6.1.8.7 1.3 1.5 1.3h.2c.8-.1 1.4-.8 1.3-1.6-.2-.8-.9-1.4-1.7-1.3zm6.5-48.2c-.8-.3-1.6.1-1.9.9-.3.8.1 1.6.9 1.9.2.1.4.1.5.1.6 0 1.2-.4 1.4-1 .2-.8-.2-1.6-.9-1.9zm-6.2 23.7c-.8-.1-1.5.5-1.6 1.3-.1.8.5 1.5 1.3 1.6h.2c.7 0 1.4-.6 1.5-1.3 0-.8-.6-1.5-1.4-1.6zm5.2 48.3c-.8.3-1.1 1.1-.9 1.9.2.6.8 1 1.4 1 .2 0 .4 0 .5-.1.8-.3 1.1-1.1.9-1.9-.3-.8-1.2-1.2-1.9-.9zm-3.5-57.5h.4c.7 0 1.3-.5 1.4-1.1.2-.8-.3-1.6-1.1-1.8-.8-.2-1.6.3-1.8 1.1-.2.8.3 1.6 1.1 1.8zm14.5 79.4c-.7.5-.8 1.4-.4 2.1.3.4.7.6 1.2.6.3 0 .6-.1.8-.3.7-.5.8-1.4.4-2.1-.4-.6-1.3-.8-2-.3zm36.5-147.8c-.7.4-1 1.3-.6 2 .3.5.8.8 1.3.8.2 0 .5-.1.7-.2.2-.1.4-.3.5-.5v-1.7c-.4-.5-1.2-.7-1.9-.4zM420 349.2c.2.1.5.2.7.2.5 0 1-.3 1.3-.8.4-.7.1-1.6-.6-2-.7-.4-1.6-.1-2 .6-.4.7-.1 1.6.6 2zm42.2 135.1c-.4.7-.1 1.6.6 2 .2.1.5.2.7.2.4 0 .8-.2 1.1-.5v-1.9l-.4-.4c-.8-.4-1.7-.1-2 .6zm-40.8-40.7c.7-.4 1-1.3.6-2s-1.3-1-2-.6-1 1.3-.6 2c.3.5.8.8 1.3.8.3 0 .5-.1.7-.2zm-7.9-24.5c-.2-.8-1-1.3-1.8-1.1-.8.2-1.3 1-1.1 1.8.2.7.8 1.1 1.4 1.1h.4c.8-.3 1.3-1.1 1.1-1.8zm40.3 58.3c-.7-.5-1.6-.3-2.1.4s-.3 1.6.4 2.1c.3.2.6.3.8.3.5 0 .9-.2 1.2-.6.6-.8.4-1.7-.3-2.2zm-11.6-7.3c-.5.6-.5 1.5.1 2.1.3.3.6.4 1 .4s.8-.2 1.1-.5c.5-.6.5-1.5-.1-2.1-.6-.6-1.5-.5-2.1.1zm-7.6-140.9c.4 0 .8-.2 1.1-.5.5-.6.5-1.5-.1-2.1-.6-.5-1.5-.5-2.1.1-.5.6-.5 1.5.1 2.1.3.3.6.4 1 .4zm-27 65.9c0 .8.7 1.5 1.5 1.5s1.5-.7 1.5-1.5-.7-1.5-1.5-1.5-1.5.7-1.5 1.5zm-12.1-4.8s.1 0 0 0c.8 0 1.4-.6 1.4-1.3 0-.8-.5-1.4-1.3-1.4s-1.4.5-1.4 1.3.6 1.4 1.3 1.4zm3.6-24.2h.4c.6 0 1.2-.4 1.3-1 .2-.7-.2-1.5-1-1.7-.7-.2-1.5.2-1.7 1-.2.8.3 1.5 1 1.7zm14.8 91.6c-.6.4-.8 1.3-.4 1.9.3.4.7.6 1.1.6.3 0 .5-.1.8-.2.6-.4.8-1.3.4-1.9-.4-.7-1.3-.9-1.9-.4zm36.4 33.9c-.6-.4-1.5-.2-1.9.4-.4.6-.2 1.5.4 1.9.2.1.5.2.7.2.5 0 .9-.2 1.2-.6.4-.6.2-1.5-.4-1.9zm-27.5-21.9c.6-.5.7-1.3.2-1.9-.5-.6-1.3-.7-1.9-.2-.6.5-.7 1.3-.2 1.9.3.3.7.5 1 .5.4 0 .7-.1.9-.3zm16.6-163.9c.3 0 .6-.1.8-.3.6-.5.7-1.3.2-1.9-.5-.6-1.3-.7-1.9-.2-.6.5-.7 1.3-.2 1.9.3.3.7.5 1.1.5zm-1 179.1c-.5.6-.4 1.5.2 1.9.3.2.5.3.8.3.4 0 .8-.2 1.1-.5.5-.6.4-1.5-.2-1.9-.5-.5-1.4-.4-1.9.2zm11.1-186.1c.3 0 .5-.1.7-.2.6-.4.8-1.2.4-1.9-.4-.6-1.2-.8-1.9-.4-.6.4-.8 1.2-.4 1.9.3.3.7.6 1.2.6zm-19.3 15.1c.3 0 .7-.1 1-.4.5-.5.6-1.4 0-1.9-.5-.5-1.4-.6-1.9 0-.5.5-.6 1.4 0 1.9.2.3.6.4.9.4zm-16.8 16.8c-.4.6-.2 1.5.4 1.9.2.2.5.2.8.2.4 0 .9-.2 1.1-.6.4-.6.2-1.5-.4-1.9-.6-.4-1.4-.3-1.9.4zm-5.7 12.5c.2.1.4.2.6.2.5 0 1-.3 1.2-.7.3-.7.1-1.5-.6-1.8-.7-.3-1.5-.1-1.8.6-.3.5 0 1.3.6 1.7zm23.5 133.5c-.5-.5-1.4-.5-1.9 0s-.5 1.4 0 1.9c.3.3.6.4 1 .4s.7-.1 1-.4c.5-.6.5-1.4-.1-1.9zm-9.3-153.8c.4 0 .8-.2 1.1-.5.5-.6.4-1.4-.2-1.9-.6-.5-1.4-.4-1.9.2-.5.6-.4 1.4.2 1.9.2.2.5.3.8.3zm-26.2 79.7c.8 0 1.3-.7 1.3-1.4 0-.8-.7-1.3-1.4-1.3-.8 0-1.3.7-1.3 1.4s.6 1.3 1.4 1.3c-.1 0-.1 0 0 0zm1.4-27.2c-.7-.1-1.4.4-1.6 1.1-.1.7.4 1.4 1.1 1.6h.2c.7 0 1.2-.5 1.3-1.1.2-.7-.3-1.4-1-1.6zm-.4 36.7c-.7.1-1.3.8-1.1 1.6.1.7.7 1.1 1.3 1.1h.2c.7-.1 1.3-.8 1.1-1.6-.1-.7-.8-1.2-1.5-1.1zm3.1 14.6c.7-.2 1.2-1 1-1.7-.2-.7-.9-1.2-1.7-1-.7.2-1.2.9-1 1.7.2.6.7 1 1.3 1 .2.1.3.1.4 0zm3.5 11.7c.2 0 .3 0 .5-.1.7-.3 1.1-1.1.8-1.8-.3-.7-1.1-1-1.8-.8-.7.3-1 1.1-.8 1.8.3.6.8.9 1.3.9zm5.7 11c.7-.3.9-1.2.6-1.8-.3-.7-1.2-.9-1.8-.6-.7.3-.9 1.2-.6 1.8.2.5.7.7 1.2.7.2.1.4 0 .6-.1zm-5.2-97.5c-.7-.3-1.5.1-1.8.8-.3.7.1 1.5.8 1.8.2.1.3.1.5.1.5 0 1.1-.3 1.3-.9.2-.8-.1-1.6-.8-1.8zm-8.4-14.7c.2.1.4.1.6.1.5 0 .9-.2 1.1-.7.3-.6.1-1.4-.5-1.7-.6-.3-1.4-.1-1.7.5-.3.7-.1 1.5.5 1.8zm-8.8 22.8h.3c.5 0 1-.4 1.2-.9.2-.7-.2-1.4-.8-1.5-.7-.2-1.4.2-1.6.8-.2.7.2 1.4.9 1.6zm22 113.8c-.5.4-.6 1.2-.2 1.8.2.3.6.5 1 .5.3 0 .5-.1.8-.3.5-.4.6-1.2.2-1.8-.5-.5-1.3-.6-1.8-.2zm27.2-182.4c.3 0 .5-.1.7-.2.6-.4.7-1.2.3-1.7-.4-.6-1.2-.7-1.7-.3-.6.4-.7 1.2-.3 1.7.2.3.6.5 1 .5zM391 444.3c.2 0 .3 0 .5-.1.6-.3 1-1 .7-1.6-.3-.6-1-1-1.6-.7-.6.3-1 1-.7 1.6.1.5.6.8 1.1.8zm-7.2-72.3h.2c.6 0 1.1-.4 1.2-1 .1-.7-.3-1.3-1-1.5-.7-.1-1.3.3-1.5 1 0 .7.4 1.3 1.1 1.5zm7.1-23.5c.5 0 1-.3 1.2-.8.3-.6-.1-1.4-.7-1.6-.6-.3-1.4.1-1.6.7-.3.6.1 1.4.7 1.6.1 0 .3.1.4.1zm18.4-31.8c.4 0 .7-.2 1-.5.4-.5.3-1.3-.2-1.8-.5-.4-1.3-.3-1.8.2-.4.5-.3 1.3.2 1.8.2.2.5.3.8.3zm7.2 166.4c-.5.5-.5 1.3 0 1.8.2.3.6.4.9.4.3 0 .6-.1.9-.3.5-.5.5-1.3 0-1.8s-1.3-.5-1.8-.1zm9.7-184.2c.3 0 .6-.1.8-.3.5-.5.6-1.2.1-1.8-.5-.5-1.2-.6-1.8-.1-.5.5-.6 1.2-.1 1.8.3.3.6.4 1 .4zm-24.7 27.6c.2.1.4.2.7.2.4 0 .8-.2 1.1-.6.4-.6.2-1.4-.4-1.7-.6-.4-1.4-.2-1.7.4-.5.5-.3 1.3.3 1.7zm15.8-19.1c.3 0 .7-.1.9-.4.5-.5.5-1.3 0-1.8s-1.3-.5-1.8 0-.5 1.3 0 1.8c.3.3.6.4.9.4zm-33.5 110.9c-.7.1-1.1.8-1 1.5.1.6.6 1 1.2 1h.2c.7-.1 1.1-.8 1-1.5 0-.7-.7-1.1-1.4-1zm-1.3-9.7c.7-.1 1.2-.7 1.1-1.4-.1-.7-.7-1.2-1.4-1.1-.7.1-1.2.7-1.1 1.4.1.6.6 1.1 1.2 1.1h.2zm.5-13.5c0-.7-.6-1.3-1.3-1.3-.7 0-1.3.6-1.3 1.3 0 .7.6 1.3 1.3 1.3.7 0 1.3-.6 1.3-1.3zm4.3 37.5c.7-.2 1-.9.8-1.6-.2-.7-.9-1-1.6-.8-.7.2-1 .9-.8 1.6.2.5.7.9 1.2.9.2 0 .3 0 .4-.1zm47.6 66.8c-.4.6-.3 1.3.3 1.7.2.2.5.2.7.2.4 0 .8-.2 1-.5.4-.6.3-1.3-.3-1.7-.5-.4-1.3-.3-1.7.3zm-52.7-115.3h.1c.6 0 1.2-.5 1.2-1.1.1-.7-.4-1.3-1.1-1.4-.7-.1-1.3.4-1.4 1.1 0 .7.5 1.4 1.2 1.4zm43.1 107.6c-.5.5-.4 1.3.1 1.8.2.2.5.3.8.3.3 0 .7-.1.9-.4.4-.5.4-1.3-.1-1.8-.4-.5-1.2-.4-1.7.1zm-29.2-36.3c.2 0 .4 0 .6-.1.6-.3.9-1.1.5-1.7-.3-.6-1.1-.9-1.7-.5-.6.3-.9 1.1-.5 1.7.2.4.6.6 1.1.6zm7.2 8.7c-.4-.6-1.1-.7-1.7-.4-.6.4-.7 1.1-.4 1.7.2.4.6.6 1.1.6.2 0 .5-.1.7-.2.5-.3.7-1.1.3-1.7zm-29.2-110.2c.1 0 .2.1.3.1.5 0 .9-.3 1.1-.8.2-.6-.1-1.2-.7-1.4-.6-.2-1.2.1-1.4.7-.2.6.1 1.2.7 1.4zm16.7 116.3c-.3-.5-1-.7-1.6-.4-.5.3-.7 1-.4 1.6.2.3.6.5 1 .5.2 0 .4-.1.6-.2.6-.3.7-1 .4-1.5zm-16.6-33.9c-.6.2-.9.8-.7 1.4.1.5.6.8 1.1.8.1 0 .2 0 .3-.1.6-.2.9-.8.7-1.4-.2-.5-.8-.9-1.4-.7zm9.6 24.9c.2 0 .4 0 .5-.1.6-.3.8-1 .5-1.5-.3-.6-1-.8-1.5-.5-.6.3-.8 1-.5 1.5.1.4.5.6 1 .6zm5.4-140.8c.2.1.4.2.6.2.4 0 .7-.2 1-.5.3-.5.2-1.2-.4-1.6-.5-.3-1.2-.2-1.6.4-.3.5-.2 1.2.4 1.5zm-20.1 57.5h.1c.6 0 1.1-.4 1.1-1 .1-.6-.4-1.2-1-1.3-.6-.1-1.2.4-1.3 1 0 .6.5 1.2 1.1 1.3zm9.5-35.5c.4 0 .9-.3 1.1-.7.2-.6 0-1.2-.6-1.5-.6-.2-1.2 0-1.5.6-.2.6 0 1.2.6 1.5.1.1.2.1.4.1zm-7.5 23.4h.2c.5 0 1-.4 1.1-.9.1-.6-.3-1.2-.9-1.4-.6-.1-1.2.3-1.4.9 0 .7.4 1.3 1 1.4zm-.7 47.5c-.1-.6-.6-1.1-1.3-1-.6.1-1.1.7-1 1.3.1.6.6 1 1.1 1h.1c.7-.1 1.2-.6 1.1-1.3zm8.2 36.8c.1 0 .3 0 .4-.1.6-.2.9-.9.6-1.5-.2-.6-.9-.9-1.5-.6-.6.2-.9.9-.6 1.5.3.4.7.7 1.1.7zm-10.3-47.7c.6 0 1.1-.6 1.1-1.2s-.6-1.1-1.2-1.1-1.1.6-1.1 1.2.5 1.1 1.2 1.1c-.1 0 0 0 0 0zm14.9-71.3c.2.1.3.1.5.1.4 0 .8-.2 1-.6.3-.6.1-1.2-.5-1.5-.6-.3-1.2-.1-1.5.5-.3.6-.1 1.2.5 1.5zm21.3-30.1c.3 0 .6-.1.8-.4.4-.5.4-1.2-.1-1.6-.5-.4-1.2-.4-1.6.1-.4.5-.4 1.2.1 1.6.3.2.5.3.8.3zm8.6-8.8c.3 0 .6-.1.8-.3.5-.4.5-1.1 0-1.6-.4-.5-1.1-.5-1.6 0s-.5 1.1-.1 1.6c.3.2.6.3.9.3zm9.3-8c.2 0 .5-.1.7-.2.5-.4.6-1.1.2-1.6-.4-.5-1.1-.6-1.6-.2-.5.4-.6 1.1-.2 1.6.2.3.6.4.9.4zm-17 205.4c-.4-.5-1.1-.5-1.6-.1s-.5 1.1-.1 1.6c.2.2.5.4.8.4.3 0 .5-.1.8-.3.5-.5.6-1.2.1-1.6zm-9.6-180.9c-.4.5-.3 1.2.2 1.6.2.2.4.2.7.2.3 0 .7-.2.9-.5.4-.5.3-1.2-.2-1.6-.5-.3-1.2-.3-1.6.3zm25.8 197.7c-.4.5-.3 1.2.2 1.6.2.2.5.2.7.2.3 0 .7-.1.9-.4.4-.5.3-1.2-.2-1.6-.5-.4-1.2-.3-1.6.2zm-49.1-81.1c-.1-.6-.7-1-1.4-.9-.6.1-1 .7-.9 1.4.1.5.6.9 1.1.9h.2c.7-.2 1.1-.8 1-1.4zm23.6 54.6c-.5.4-.6 1.1-.2 1.6.2.3.6.5.9.5.2 0 .5-.1.7-.2.5-.4.6-1.1.2-1.6-.4-.5-1.1-.6-1.6-.3zm-27.9-89.8c.7 0 1.2-.5 1.2-1.1 0-.6-.5-1.2-1.1-1.2-.6 0-1.2.5-1.2 1.1 0 .7.4 1.2 1.1 1.2zm44.1 108.2c-.4.5-.4 1.2.1 1.6.2.2.5.3.8.3.3 0 .6-.1.8-.4.4-.5.4-1.2-.1-1.6-.4-.4-1.1-.3-1.6.1zm-3.2-221c.2 0 .5-.1.7-.2.4-.4.5-1 .1-1.4-.4-.4-1-.5-1.4-.1-.4.4-.5 1-.1 1.4.2.2.4.3.7.3zm-.7 235.9c-.4.4-.3 1.1.1 1.4.2.2.4.2.7.2.3 0 .6-.1.8-.4.4-.4.3-1.1-.1-1.4-.5-.3-1.1-.2-1.5.2zM359 432.6c.6-.1.9-.7.8-1.2-.1-.6-.7-.9-1.2-.8-.6.1-.9.7-.8 1.2.1.5.5.8 1 .8h.2zm2.7 9.8c-.5.2-.8.8-.7 1.3.1.4.5.7 1 .7h.3c.5-.2.8-.8.7-1.3-.2-.6-.7-.8-1.3-.7zm0-94.6h.3c.4 0 .8-.3 1-.7.2-.5-.1-1.1-.7-1.3-.5-.2-1.1.1-1.3.7-.2.6.1 1.1.7 1.3zm-4.4 71.6c-.1-.6-.6-.9-1.2-.8-.6.1-.9.6-.8 1.2.1.5.5.9 1 .9h.2c.5-.2.9-.7.8-1.3zm19.5-105.1c.2.1.4.1.5.1.3 0 .7-.2.9-.5.3-.5.1-1.1-.3-1.4-.4-.3-1.1-.1-1.4.3-.3.6-.1 1.2.3 1.5zm15.7 183c.4-.4.5-1 .1-1.4-.4-.4-1-.5-1.4-.1-.4.4-.5 1-.1 1.4.2.2.5.4.8.4.2 0 .4-.1.6-.3zm-14.2-21.1c-.3-.5-.9-.6-1.4-.3-.5.3-.6.9-.3 1.4.2.3.5.5.9.5.2 0 .4 0 .5-.1.5-.4.6-1 .3-1.5zm21.2 28.6c-.4.4-.4 1 0 1.4.2.2.5.3.7.3.3 0 .5-.1.7-.3.4-.4.4-1 0-1.4-.4-.4-1-.4-1.4 0zm-15.8-18.7c-.5.3-.6 1-.2 1.4.2.3.5.4.8.4.2 0 .4-.1.6-.2.5-.3.6-1 .2-1.4-.3-.5-1-.6-1.4-.2zm-27.8-78.8c0-.6-.5-1-1.1-.9-.6 0-1 .5-.9 1.1 0 .5.5.9 1 .9h.1c.5 0 1-.5.9-1.1zm10.4 48.6c.1 0 .3 0 .4-.1.5-.2.8-.8.6-1.3-.2-.5-.8-.8-1.3-.6-.5.2-.8.8-.6 1.3.1.5.5.7.9.7zm4.7 9.2c-.5.3-.7.9-.4 1.4.2.4.5.6.9.6.2 0 .3 0 .5-.1.5-.3.7-.9.4-1.4-.3-.5-.9-.7-1.4-.5zm-17.1-82.3c0 .6.4 1.1.9 1.1h.1c.5 0 1-.4 1-.9 0-.6-.4-1.1-.9-1.1-.6-.1-1.1.3-1.1.9zm29.7-78.7c.2.1.4.2.6.2.3 0 .6-.1.8-.4.3-.5.2-1.1-.2-1.4-.5-.3-1.1-.2-1.4.2-.4.4-.3 1.1.2 1.4zm8.2-9.4c.3 0 .6-.1.8-.4.4-.4.3-1.1-.1-1.4-.4-.4-1.1-.3-1.4.1-.4.4-.3 1.1.1 1.4.1.2.4.3.6.3zm-25.6 41.6c.4 0 .8-.2.9-.6.2-.5 0-1.1-.6-1.3-.5-.2-1.1 0-1.3.6-.2.5 0 1.1.6 1.3h.4zm-10.1 35.4h.2c.5 0 .9-.4 1-.9.1-.6-.3-1.1-.9-1.2-.6-.1-1.1.3-1.2.9 0 .6.4 1.1.9 1.2zm14.8-46.6c.1.1.3.1.5.1.4 0 .7-.2.9-.6.3-.5.1-1.1-.4-1.4-.5-.3-1.1-.1-1.4.4-.3.6-.1 1.2.4 1.5zm-17.5 70c0 .6.5 1 1 1s1-.5 1-1c0-.6-.5-1-1-1s-1 .5-1 1zm5-35.5h.2c.5 0 .9-.3 1-.8.1-.6-.2-1.1-.8-1.2-.6-.1-1.1.2-1.2.8 0 .6.3 1.1.8 1.2zm41.7-73.9c.3 0 .5-.1.7-.3.4-.4.4-1 0-1.4-.4-.4-1-.4-1.4 0-.4.4-.4 1 0 1.4.2.1.5.3.7.3zm-13.4 225.5c-.4.3-.4.9 0 1.3.2.2.4.3.7.3.2 0 .4-.1.6-.2.4-.3.4-.9 0-1.3s-.9-.4-1.3-.1zm.6-232c.2 0 .5-.1.7-.3.3-.4.3-.9 0-1.3-.4-.3-.9-.3-1.3 0-.3.4-.3.9 0 1.3.1.2.3.3.6.3zm-22.8 29.1c.1.1.3.1.5.1.3 0 .6-.2.8-.4.3-.4.1-1-.3-1.2-.4-.3-1-.1-1.3.3-.2.4-.1.9.3 1.2zm6.7 183.9c-.4.3-.5.9-.2 1.3.2.3.5.4.7.4.2 0 .4-.1.5-.2.4-.3.5-.9.2-1.3-.2-.4-.7-.5-1.2-.2zm7.4 9.8c-.4.3-.4.9-.1 1.3.2.2.4.3.7.3.2 0 .4-.1.6-.2.4-.3.4-.9.1-1.3-.3-.4-.9-.4-1.3-.1zm-24.3-173.4c-.5-.2-1 0-1.2.5-.2.5 0 1 .5 1.2.1 0 .2.1.4.1.4 0 .7-.2.8-.6.1-.5-.1-1-.5-1.2zm-5.6 12c-.2.5.1 1 .6 1.2h.3c.4 0 .7-.2.9-.6.2-.5-.1-1-.6-1.1-.5-.2-1 0-1.2.5zm23-42.5c.3 0 .6-.1.7-.4.3-.4.2-1-.2-1.3-.4-.3-1-.2-1.3.2-.3.4-.2 1 .2 1.3.2.2.4.2.6.2zm-5.9 184.1c-.3-.4-.8-.6-1.3-.3-.4.3-.6.8-.3 1.3.2.3.5.4.8.4.2 0 .3 0 .5-.1.5-.3.6-.9.3-1.3zm-19.9-128.7h.2c.4 0 .8-.3.9-.7.1-.5-.2-1-.7-1.1-.5-.1-1 .2-1.1.7-.1.5.2 1 .7 1.1zm33.2-65.1c.3 0 .5-.1.7-.3.3-.4.3-1-.1-1.3-.4-.3-1-.3-1.3.1-.3.4-.3 1 .1 1.3.2.1.4.2.6.2zm16.3 231.5c-.3.4-.3.9.1 1.3.2.2.4.2.6.2.2 0 .5-.1.7-.3.3-.4.3-.9-.1-1.3-.4-.3-1-.3-1.3.1zm-51-94.4c-.1-.5-.6-.8-1.1-.7-.5.1-.8.6-.7 1.1.1.4.5.7.9.7h.2c.5-.1.8-.6.7-1.1zm-2.8-12.9c-.5.1-.9.5-.8 1 0 .5.4.8.9.8h.1c.5-.1.9-.5.8-1 0-.5-.5-.8-1-.8zm7.7 35.9c-.5.2-.7.7-.6 1.2.1.4.5.6.9.6h.3c.5-.2.7-.7.6-1.2-.2-.5-.7-.7-1.2-.6zM396 270.6c.2 0 .4-.1.6-.2.4-.3.4-.9.1-1.3-.3-.4-.9-.4-1.3-.1-.4.3-.4.9-.1 1.3.2.2.5.3.7.3zm-36.5 202.2c.4-.2.6-.8.4-1.2-.2-.4-.8-.6-1.2-.4-.4.2-.6.8-.4 1.2.2.3.5.5.8.5.2 0 .3-.1.4-.1zm45.5 54.8s-.1 0-.1.1zm-46.4-208.5c.1.1.3.1.4.1.3 0 .7-.2.8-.5.2-.4 0-1-.4-1.2-.4-.2-1-.1-1.2.4-.2.4 0 .9.4 1.2zm-5 140.9c-.5.2-.7.7-.5 1.2.1.3.5.6.8.6.1 0 .2 0 .4-.1.5-.2.7-.7.5-1.2-.2-.5-.7-.7-1.2-.5zm-7.2-21.5c.5-.1.8-.6.7-1.1-.1-.5-.6-.8-1.1-.7-.5.1-.8.6-.7 1.1.1.4.5.7.9.7h.2zm-5.6-61.8c-.1.5.3.9.8 1h.1c.5 0 .9-.3.9-.8.1-.5-.3-.9-.8-1-.5-.1-.9.3-1 .8zm.1 25.5c.5 0 .9-.4.9-.9s-.4-.9-.9-.9-.9.4-.9.9.4.9.9.9zm0-12.3c.5 0 .9-.4.9-.9s-.4-.9-.9-.9-.9.4-.9.9c-.1.5.3.9.9.9-.1 0-.1 0 0 0zm2.4-24.4h.2c.4 0 .8-.3.9-.7.1-.5-.2-1-.7-1.1-.5-.1-1 .2-1.1.7-.1.6.2 1 .7 1.1zM374 517.6c-.3.3-.4.8-.1 1.1.2.2.4.3.6.3.2 0 .4-.1.5-.2.3-.3.3-.8.1-1.1-.3-.4-.8-.4-1.1-.1zm-37-63c-.4.1-.6.6-.5 1 .1.3.4.5.8.5h.3c.4-.1.6-.6.5-1-.3-.4-.7-.7-1.1-.5zm9.4-141.6c.1.1.2.1.4.1.3 0 .6-.2.7-.4.2-.4 0-.9-.3-1.1-.4-.2-.9 0-1.1.3-.3.4-.1.9.3 1.1zm-5.6 10.1c-.2.4 0 .9.4 1 .1 0 .2.1.3.1.3 0 .6-.2.7-.5.2-.4 0-.9-.4-1-.3-.2-.8 0-1 .4zm5.6 154.1c-.4.2-.6.7-.4 1.1.1.3.4.4.7.4.1 0 .2 0 .4-.1.4-.2.5-.7.3-1.1-.1-.4-.6-.5-1-.3zm-18.5-82.1c0-.4-.4-.8-.8-.8s-.8.4-.8.8.4.8.8.8.8-.3.8-.8zm8.5-60.4c-.1.4.1.9.5 1h.3c.3 0 .6-.2.8-.5.1-.4-.1-.9-.5-1-.5-.2-.9 0-1.1.5zm-9 49s.1 0 0 0c.5 0 .8-.3.8-.7 0-.4-.3-.8-.7-.8-.4 0-.8.3-.8.7 0 .4.3.7.7.8zM383 263.9c.2 0 .4-.1.6-.2.3-.3.3-.8 0-1.1-.3-.3-.8-.3-1.1 0-.3.3-.3.8 0 1.1.1.1.3.2.5.2zm-16.5 18.2c.2 0 .5-.1.6-.3.3-.3.2-.8-.1-1.1-.3-.3-.8-.2-1.1.1-.3.3-.2.8.1 1.1.2.2.4.2.5.2zm-7.2 9.9c.3 0 .5-.1.7-.3.3-.4.2-.9-.2-1.1-.4-.3-.9-.2-1.1.2-.3.4-.2.9.2 1.1 0 .1.2.1.4.1zm-28.7 67.3h.2c.4 0 .7-.3.8-.6.1-.4-.2-.8-.6-.9-.4-.1-.8.2-.9.6-.3.4 0 .9.5.9zM341.3 466c-.4.2-.6.6-.4 1 .1.3.4.5.7.5.1 0 .2 0 .3-.1.4-.2.6-.6.4-1-.1-.3-.6-.5-1-.4zm24.8 42.2c-.3.3-.4.8-.1 1.1.2.2.4.3.6.3.2 0 .3-.1.5-.2.3-.3.4-.8.1-1.1-.3-.3-.8-.4-1.1-.1zm-31.8-64.8c-.1-.4-.6-.7-1-.6-.4.1-.7.6-.6 1 .1.4.4.6.8.6h.2c.5-.1.8-.6.6-1zm24.5 54.9c-.4.3-.5.7-.2 1.1.2.2.4.3.7.3.2 0 .3 0 .4-.1.4-.3.5-.7.2-1.1-.2-.4-.7-.5-1.1-.2zm23.7 28.1c-.3.3-.3.8 0 1.1.2.1.4.2.6.2.2 0 .4-.1.6-.2.3-.3.3-.8 0-1.1-.4-.3-.9-.3-1.2 0zm-49.2-179h.2c.4 0 .7-.2.8-.6.1-.4-.1-.9-.6-1-.4-.1-.9.1-1 .6 0 .4.2.9.6 1zm18.9-45.2c.1.1.3.1.4.1.3 0 .5-.1.7-.4.2-.4.1-.9-.3-1.1-.4-.2-.9-.1-1.1.3-.2.4 0 .9.3 1.1zm-24.7 106c.5 0 .8-.4.8-.8s-.4-.8-.8-.7c-.4 0-.8.4-.7.8-.1.4.3.7.7.7zm2-37.4c.1-.4-.3-.8-.7-.9-.4-.1-.8.3-.9.7-.1.4.3.8.7.9h.1c.4 0 .7-.3.8-.7zm-1.6 48.9c.1.4.4.7.8.7h.1c.4-.1.7-.5.7-.9-.1-.4-.5-.7-.9-.7-.4.1-.7.5-.7.9zm25.2 69.6c.4-.2.5-.7.3-1.1-.2-.4-.7-.5-1.1-.3-.4.2-.5.7-.3 1.1.1.2.4.4.7.4.1 0 .3 0 .4-.1zm-22.5-58.4c-.4.1-.7.5-.6.9.1.4.4.6.8.6h.2c.4-.1.7-.5.6-.9-.2-.4-.6-.7-1-.6zm60.9 103.8c-.2.2-.2.5-.1.8l1.3-.8s0-.1-.1-.1c-.3-.3-.8-.2-1.1.1zm-17-261.9c.2 0 .4-.1.6-.3.3-.3.3-.8-.1-1.1-.3-.3-.8-.3-1.1.1-.3.3-.3.8.1 1.1.1.1.3.2.5.2zm-46.6 97.8zm-13.7 42.2c-.4 0-.7.4-.6.7 0 .4.3.6.7.6h.1c.4 0 .7-.4.6-.7-.1-.3-.4-.6-.8-.6zm0-11.6c0-.4-.3-.7-.7-.7-.4 0-.7.3-.7.7 0 .4.3.7.7.7.4 0 .7-.3.7-.7zm1.6 25.1h.1c.4-.1.6-.4.6-.8-.1-.4-.4-.6-.8-.6-.4.1-.6.4-.6.8.1.4.3.6.7.6zm2.1 10.8c-.4.1-.6.4-.5.8.1.3.4.5.7.5h.1c.4-.1.6-.4.5-.8-.1-.4-.4-.6-.8-.5zm43.9-170.7c.2 0 .4-.1.5-.2.2-.3.2-.7-.1-1-.3-.2-.7-.2-1 .1-.2.3-.2.7.1 1 .1 0 .3.1.5.1zm-41 74.9h.2c.3 0 .6-.2.7-.5.1-.4-.1-.7-.5-.8-.4-.1-.7.1-.8.5-.1.3.1.7.4.8zm3.8 119.3c-.4.1-.5.5-.4.9.1.3.4.5.6.5h.2c.4-.1.5-.5.4-.9-.1-.4-.5-.6-.8-.5zm45.5-203.2c.2 0 .4-.1.5-.2.3-.3.3-.7 0-1-.3-.3-.7-.3-1 0-.3.3-.3.7 0 1 .1.1.3.2.5.2zm-48.4 192c-.1-.4-.5-.6-.8-.5-.4.1-.6.5-.5.8.1.3.4.5.7.5h.2c.3 0 .5-.4.4-.8zm24.8 55c-.3.2-.4.6-.2 1 .1.2.3.3.6.3.1 0 .3 0 .4-.1.3-.2.4-.6.2-1-.3-.4-.7-.4-1-.2zm.3-218.6c.2 0 .4-.1.6-.3.2-.3.1-.7-.2-.9-.3-.2-.7-.1-.9.2-.2.3-.1.7.2 1h.3zm-29.5 66.6c-.1.4.2.7.5.8h.1c.3 0 .6-.2.7-.5.1-.4-.2-.7-.5-.8-.3-.1-.7.1-.8.5zm52.3 180.5c-.3.3-.3.7 0 1 .1.1.3.2.5.2s.3-.1.5-.2c.3-.3.3-.7 0-1-.3-.2-.7-.2-1 0zm-16-257.2c.1.1.3.1.4.1.2 0 .4-.1.5-.3.2-.3.2-.7-.1-1-.3-.2-.7-.2-1 .1-.2.5-.1.9.2 1.1zm-39.4 101.7c.4 0 .7-.3.7-.6 0-.4-.2-.7-.6-.7-.4 0-.7.2-.7.6-.1.3.2.7.6.7zm14.8 94.7c-.3.1-.5.6-.4.9.1.3.4.4.6.4.1 0 .2 0 .3-.1.3-.1.5-.6.4-.9-.1-.3-.5-.5-.9-.3zm-15.5-82.4c.4 0 .7-.3.7-.7 0-.4-.3-.7-.7-.7-.4 0-.7.3-.7.7 0 .3.3.7.7.7zm20.6-82.7c.1 0 .2.1.3.1.2 0 .5-.1.6-.4.2-.3 0-.7-.3-.9-.3-.2-.7 0-.9.3-.1.3 0 .7.3.9zm44.3 234.4c-.3.3-.2.7.1 1 .1.1.3.2.5.2s.4-.1.5-.2c.3-.3.2-.7 0-1-.4-.3-.8-.3-1.1 0zm-49.8-224.2c-.1.3 0 .7.4.9.1 0 .2.1.3.1.3 0 .5-.2.6-.4.1-.3 0-.7-.4-.9-.3-.2-.7 0-.9.3zm12.3 177c-.2-.3-.6-.4-.9-.2-.3.2-.4.6-.2.9.1.2.4.3.6.3.1 0 .2 0 .3-.1.3-.1.4-.6.2-.9zm-6.8-11c-.3.2-.5.6-.3.9.1.2.4.4.6.4.1 0 .2 0 .3-.1.3-.2.5-.6.3-.9-.1-.3-.5-.5-.9-.3zm-9.6-153.6h.2c.3 0 .5-.2.6-.5.1-.4-.1-.7-.4-.9-.4-.1-.7.1-.9.4 0 .5.2.8.5 1zm15.5-33.4c.1.1.2.1.3.1.2 0 .5-.1.6-.3.2-.3.1-.7-.2-.9-.3-.2-.7-.1-.9.2-.3.2-.2.7.2.9zm21.3 227.7c-.3.2-.3.7-.1 1 .1.2.3.2.5.2s.3-.1.4-.2c.3-.2.3-.7.1-1-.2-.2-.6-.3-.9 0zm-45.6-158.7h.1c.3 0 .6-.2.7-.6.1-.4-.2-.7-.6-.8-.4-.1-.7.2-.8.6-.1.4.2.8.6.8zm37.9 149.2c-.3.2-.4.7-.1 1 .1.2.3.3.5.3.1 0 .3 0 .4-.1.3-.2.4-.7.1-1-.2-.4-.6-.5-.9-.2zm3.3 25c-.2.2-.2.6 0 .8.1.1.3.2.4.2.1 0 .3-.1.4-.2.2-.2.2-.6 0-.8-.3-.2-.6-.2-.8 0zm.3-288.5c.2 0 .3-.1.4-.2.2-.2.2-.6 0-.8-.2-.2-.6-.2-.8 0-.2.2-.2.6 0 .8.1.2.3.2.4.2zm8.3-8.8c.1.1.3.2.4.2.1 0 .3 0 .4-.2l.1-.1-1-.6c-.1.2-.1.5.1.7zm-24.1 27.6c.2 0 .3-.1.5-.2.2-.3.1-.6-.1-.8-.3-.2-.6-.1-.8.1-.2.3-.1.6.1.8.1.1.2.1.3.1zm-29.2 197.1c-.3.1-.4.4-.3.7.1.2.3.4.5.4h.2c.3-.1.4-.4.3-.7 0-.4-.4-.5-.7-.4zM349 260.1c.2 0 .3-.1.4-.2.2-.2.2-.6-.1-.8-.2-.2-.6-.2-.8.1-.2.2-.2.6.1.8.2.1.3.1.4.1zm-.3 270.1c-.2.2-.3.6-.1.8.1.1.3.2.4.2.1 0 .3 0 .4-.1.2-.2.3-.6.1-.8-.2-.3-.5-.3-.8-.1zm-7.6-9.6c-.3.2-.3.5-.1.8.1.1.3.2.5.2.1 0 .2 0 .3-.1.3-.2.3-.5.1-.8-.2-.3-.5-.3-.8-.1zm-7-240.9c.1.1.2.1.3.1.2 0 .4-.1.5-.3.2-.3.1-.6-.2-.8-.3-.2-.6-.1-.8.2-.2.3-.1.6.2.8zm-5.6 220.6c-.2-.3-.5-.4-.8-.2-.3.2-.4.5-.2.8.1.2.3.3.5.3.1 0 .2 0 .3-.1.2-.2.3-.6.2-.8zm-12.1-188.9c-.1.3 0 .6.3.7h.2c.2 0 .4-.1.5-.3.1-.3 0-.6-.3-.7-.3-.2-.6 0-.7.3zm-8 23.8h.2c.2 0 .5-.2.5-.4.1-.3-.1-.6-.4-.7-.3-.1-.6.1-.7.4-.1.3.1.6.4.7zm-3.1 108c-.3.1-.5.4-.4.7.1.3.3.4.6.4h.1c.3-.1.5-.4.4-.7-.1-.2-.4-.4-.7-.4zm16.6 46.1c-.3.1-.4.5-.3.8.1.2.3.3.5.3.1 0 .2 0 .3-.1.3-.1.4-.5.3-.8-.2-.3-.5-.4-.8-.2zm5.7-199.2c.1.1.2.1.3.1.2 0 .4-.1.5-.3.2-.3.1-.6-.2-.8-.3-.2-.6-.1-.8.2-.1.3 0 .7.2.8zm-10.9 188c-.3.1-.4.5-.3.7.1.2.3.3.5.3h.2c.3-.1.4-.5.3-.7-.1-.2-.4-.4-.7-.3zm5.1-177.1c.1 0 .2.1.3.1.2 0 .4-.1.5-.3.1-.3 0-.6-.3-.8-.3-.1-.6 0-.8.3-.1.2.1.5.3.7zm-9.6 22.6h.2c.2 0 .5-.1.5-.4.1-.3 0-.6-.3-.7-.3-.1-.6 0-.7.3-.2.3 0 .6.3.8zm-3.8 131.5c-.3.1-.5.4-.4.7.1.2.3.4.5.4h.2c.3-.1.5-.4.4-.7-.1-.3-.4-.5-.7-.4zm-3.6-108.7c-.1.3.1.6.4.7h.1c.3 0 .5-.2.6-.4.1-.3-.1-.6-.4-.7-.3-.1-.6.1-.7.4zm-3.7 24.8c.4 0 .6-.2.6-.5s-.2-.6-.5-.6-.6.2-.6.5c-.1.3.2.6.5.6zm-.8 24c0-.3-.3-.6-.6-.6s-.6.3-.6.6.3.6.6.6c.4-.1.6-.3.6-.6zm-.2 11.7c-.3 0-.6.3-.5.6 0 .3.3.5.6.5s.6-.3.5-.6c0-.3-.3-.6-.6-.5zm0-23.4c.3 0 .6-.2.6-.5s-.2-.6-.5-.6-.6.2-.6.5c-.1.3.1.6.5.6zm34 127c-.3.2-.3.5-.2.8.1.2.3.3.5.3.1 0 .2 0 .3-.1.3-.2.3-.5.2-.8-.2-.3-.5-.4-.8-.2zm-33-91.4c-.3 0-.5.3-.5.6s.3.5.6.5h.1c.3 0 .5-.3.5-.6-.1-.3-.4-.6-.7-.5zm2.4 12.6c-.1-.3-.3-.5-.7-.5-.3.1-.5.3-.5.7 0 .3.3.5.6.5h.1c.3-.1.5-.4.5-.7zm-.7-72.6h.1c.3 0 .5-.2.6-.5.1-.3-.2-.6-.5-.7-.3-.1-.6.2-.7.5 0 .4.2.6.5.7zm62.7 189c-.2.2-.2.6 0 .8.1.1.3.2.4.2.2 0 .3-.1.4-.2.2-.2.2-.6 0-.8-.2-.3-.6-.3-.8 0zm-29.4-11.7c-.2.2-.2.4-.1.6.1.1.2.2.4.2.1 0 .2 0 .3-.1.2-.2.2-.4.1-.6-.2-.2-.5-.3-.7-.1zm-43.4-87c-.2.1-.4.3-.3.6.1.2.2.3.4.3h.1c.2-.1.4-.3.3-.6 0-.3-.3-.4-.5-.3zm51.4 96.3c-.2.2-.2.5 0 .6.1.1.2.1.3.1.1 0 .2 0 .3-.1.2-.2.2-.5 0-.6-.1-.1-.4-.2-.6 0zm-48.2-216.6h.1c.2 0 .4-.1.4-.3.1-.2-.1-.5-.3-.6-.2-.1-.5.1-.6.3 0 .3.2.5.4.6zm40.5-75.3c.1 0 .3-.1.4-.2.2-.2.1-.5-.1-.6-.2-.2-.5-.1-.6.1-.2.2-.1.5.1.6 0 0 .1.1.2.1zm-27 40.5c-.1.2 0 .5.2.6h.2c.2 0 .3-.1.4-.3.1-.2 0-.5-.2-.6-.2 0-.5.1-.6.3zm-4.9 189.9c-.2.1-.3.4-.2.6.1.2.2.3.4.3h.2c.2-.1.3-.4.2-.6-.1-.3-.4-.4-.6-.3zm39.6-240.5c-.2.2-.2.5 0 .6.1.1.2.1.3.1.1 0 .2-.1.3-.1.2-.2.2-.5 0-.6-.1-.2-.4-.2-.6 0zm-51.8 96.7c-.1.2.1.5.3.6h.1c.2 0 .4-.1.4-.3.1-.2-.1-.5-.3-.6-.2-.1-.4 0-.5.3zm60.6-104.8c.1 0 .2 0 .3-.1.2-.2.2-.5 0-.6-.2-.2-.5-.2-.6 0-.2.2-.2.5 0 .6.1.1.2.1.3.1zm-24.2 291.1c-.2.1-.2.4-.1.6.1.1.2.2.4.2.1 0 .2 0 .3-.1.2-.1.3-.4.1-.6-.2-.2-.5-.3-.7-.1zm-28.9-209.3h.2c.2 0 .4-.1.4-.3.1-.2 0-.5-.3-.6-.2-.1-.5 0-.6.3 0 .3.1.6.3.6zm-13 59.8c.3 0 .5-.2.5-.4s-.2-.5-.4-.5c-.3 0-.5.2-.5.4-.1.3.1.5.4.5zm17.6-71.2h.2c.2 0 .3-.1.4-.3.1-.2 0-.5-.2-.6-.2-.1-.5 0-.6.2-.1.4 0 .6.2.7zm-7.9 155.5c-.1-.2-.3-.4-.6-.3-.2.1-.4.3-.3.6.1.2.2.3.4.3h.1c.4-.1.5-.4.4-.6zm-8.8-97c0 .3.1.5.4.5h.1c.2 0 .4-.2.4-.4s-.1-.5-.4-.5c-.3 0-.5.2-.5.4zm27.7 141.6c-.2.1-.3.4-.2.6.1.1.2.2.4.2.1 0 .2 0 .2-.1.2-.1.3-.4.2-.6-.1-.2-.4-.2-.6-.1zm37.2 48.5c-.2.2-.2.5 0 .6.1.1.2.1.3.1.1 0 .2 0 .3-.1.2-.2.2-.5 0-.6-.1-.2-.4-.2-.6 0zm-66.5-165.1s.1 0 0 0c.3 0 .5-.2.5-.4 0-.3-.2-.5-.4-.5-.3 0-.5.2-.5.4s.2.5.4.5zm23.5 105.8c-.2.1-.3.4-.2.6.1.2.2.3.4.3h.2c.2-.1.3-.4.2-.6-.1-.4-.4-.4-.6-.3zm-23-94c0-.3-.2-.4-.5-.4s-.4.2-.4.5c0 .2.2.4.5.4.2-.1.4-.3.4-.5zm42.3-137.8c.1 0 .3-.1.4-.2.1-.2.1-.5-.1-.6-.2-.1-.5-.1-.6.1-.1.2-.1.5.1.6.1.1.2.1.2.1zm-29 209.3c-.2.1-.4.4-.3.6.1.2.2.3.4.3h.2c.2-.1.4-.3.3-.6-.1-.3-.4-.4-.6-.3zm21.8-199.2c.1.1.2.1.2.1.1 0 .3-.1.4-.2.1-.2.1-.5-.1-.6-.2-.1-.5-.1-.6.1-.1.1-.1.4.1.6zm.1 243c-.2.1-.3.4-.1.6.1.1.2.2.4.2.1 0 .2 0 .2-.1.2-.1.3-.4.1-.6-.2-.2-.4-.3-.6-.1zm-33.7-91.3c-.2 0-.4.3-.4.5s.2.4.5.4h.1c.2 0 .4-.3.4-.5-.1-.3-.4-.5-.6-.4zm27.3-141.2c.1 0 .1.1.2.1.2 0 .3-.1.4-.2.1-.2 0-.5-.2-.6-.2-.1-.5 0-.6.2-.1.1 0 .3.2.5zM290 352.9c.1 0 .1 0 0 0 .3 0 .5-.1.5-.4 0-.2-.1-.5-.4-.5-.2 0-.5.1-.5.4 0 .2.2.5.4.5zm.1 84.5c-.2 0-.4.3-.4.5s.2.4.4.4h.1c.2 0 .4-.3.4-.5-.1-.3-.3-.5-.5-.4zm-3.3-24.3c-.3 0-.4.2-.4.5 0 .2.2.4.5.4.2 0 .4-.2.4-.5s-.3-.4-.5-.4zm-14.1-6.1c-.2 0-.3.2-.3.4s.2.3.3.3c.2 0 .3-.2.3-.4.1-.1-.1-.3-.3-.3zm19.5 83.2c-.2.1-.3.3-.2.4.1.1.2.2.3.2h.1c.2-.1.3-.3.2-.4-.1-.2-.3-.3-.4-.2zm-8.7-23c-.2.1-.3.3-.2.4 0 .1.2.2.3.2h.1c.2-.1.3-.2.2-.4 0-.1-.2-.2-.4-.2zm26.1-199.7c.1 0 .2-.1.3-.2.1-.2.1-.4-.1-.5-.2-.1-.4-.1-.5.1-.1.2-.1.4.1.5.1.1.1.1.2.1zm-29.5 188c-.2 0-.3.2-.2.4 0 .2.2.3.3.3h.1c.2 0 .3-.2.2-.4 0-.3-.2-.4-.4-.3zm36.4-198.2c.1 0 .2 0 .3-.1.1-.2.1-.4-.1-.5-.2-.1-.4-.1-.5.1-.1.2-.1.4.1.5h.2zm-33 65.7h.1c.1 0 .3-.1.3-.2.1-.2 0-.4-.2-.4-.2-.1-.4 0-.4.2-.1.1 0 .3.2.4zm4.1 155.8c-.2.1-.3.3-.2.4.1.1.2.2.3.2h.1c.2-.1.3-.3.2-.4-.1-.1-.3-.2-.4-.2zm52.5-249.7c.1 0 .2 0 .2-.1.1-.1.1-.4 0-.5-.1-.1-.4-.1-.5 0-.1.1-.1.4 0 .5.1.1.2.1.3.1zm-16.3 18.4c.1 0 .2 0 .3-.1.1-.1.1-.4-.1-.5-.1-.1-.4-.1-.5.1-.1.1-.1.4.1.5h.2zm-36.3 63.9h.1c.1 0 .3-.1.3-.2.1-.2 0-.4-.2-.4-.2-.1-.4 0-.4.2 0 .1 0 .3.2.4zm9.7-23c-.1.2 0 .4.2.5h.1c.1 0 .2-.1.3-.2.1-.2 0-.4-.2-.5-.1-.1-.3 0-.4.2zm-4.9 11.6c.1 0 .3-.1.3-.2.1-.2 0-.4-.2-.4-.2-.1-.4 0-.4.2-.1.2 0 .4.2.4h.1zm-19.6 95.1c0-.2-.2-.3-.3-.3-.2 0-.3.1-.3.3 0 .2.2.3.3.3.2.1.3-.1.3-.3zm7.2-60.8c0 .2.1.4.2.4h.1c.2 0 .3-.1.3-.3 0-.2-.1-.4-.2-.4-.2.1-.4.2-.4.3zm-7.2 48.9c.2 0 .3-.1.4-.3 0-.2-.1-.3-.3-.4-.2 0-.3.1-.4.3 0 .2.1.4.3.4zm67 177.8c-.1.1-.1.3 0 .5.1.1.2.1.2.1s.2 0 .2-.1c.1-.1.1-.3 0-.5 0-.1-.2-.1-.4 0zm-66.1-141.7c-.2 0-.3.2-.3.4s.2.3.3.3c.2 0 .3-.2.3-.4.1-.2-.1-.3-.3-.3zm1.6 12.1c-.2 0-.3.2-.3.4s.2.3.3.3h.1c.2 0 .3-.2.3-.4-.1-.2-.2-.3-.4-.3zm-1.6-60.4c.2 0 .4-.1.4-.3 0-.2-.1-.4-.3-.4-.2 0-.4.1-.4.3 0 .2.1.3.3.4zm3.7-24.3s.1 0 0 0c.2 0 .4-.1.4-.3 0-.2-.1-.4-.3-.4-.2 0-.4.1-.4.3 0 .2.1.4.3.4zm0 96.8c-.2 0-.3.2-.3.4s.2.3.3.3h.1c.2 0 .3-.2.3-.4s-.2-.3-.4-.3zm-2.2-84.7c.1 0 .1 0 0 0 .2 0 .4-.1.4-.3 0-.2-.1-.4-.3-.4-.2 0-.4.1-.4.3 0 .2.2.4.3.4zM331.4 552c-.1.1-.2.3 0 .5.1.1.2.1.3.1.1 0 .2 0 .2-.1.1-.1.2-.3 0-.5-.1-.1-.3-.1-.5 0zm-28.3-39.9c-.2.1-.2.3-.1.5.1.1.2.2.3.2h.2c.2-.1.2-.3.1-.5s-.3-.3-.5-.2zm-.1-234.6c-.1.2 0 .4.1.5h.2c.1 0 .2-.1.3-.2.1-.2 0-.4-.1-.5-.2 0-.4.1-.5.2zm13.2 255.3c-.2.1-.2.3-.1.5.1.1.2.1.3.1.1 0 .1 0 .2-.1.2-.1.2-.3.1-.5-.1-.1-.3-.1-.5 0zm-6.8-10.2c-.2.1-.2.3-.1.5.1.1.2.2.3.2.1 0 .1 0 .2-.1.2-.1.2-.3.1-.5s-.3-.2-.5-.1zm22.1-285.1c-.1.1-.1.4 0 .5.1.1.1.1.2.1s.2 0 .3-.1c.1-.1.1-.4 0-.5-.2-.1-.4-.1-.5 0zm-34.2 263.8c-.2.1-.2.3-.1.5.1.1.2.2.3.2h.2c.2-.1.2-.3.2-.5-.2-.2-.4-.3-.6-.2zm26.3 41.3c-.1.1-.2.3-.1.5.1.1.2.1.3.1.1 0 .1 0 .2-.1s.2-.3.1-.5c-.2-.1-.4-.1-.5 0zm-64.2-129.3c-.1 0-.2.1-.2.2s.1.2.2.2.2-.1.2-.2-.1-.2-.2-.2zm0-36.3c.1 0 .2-.1.2-.2s-.1-.2-.2-.2-.2.1-.2.2l.2.2zm1.1-12.3c.1 0 .1 0 0 0 .1 0 .2-.1.3-.2 0-.1-.1-.2-.2-.3-.1 0-.2.1-.3.2 0 .2.1.3.2.3zm-1.7 24.1c-.1 0-.2.1-.2.2s.1.2.2.2.2-.1.2-.2-.1-.2-.2-.2zM304 251.2c.1 0 .1 0 .2-.1s0-.2-.1-.3c-.1-.1-.2 0-.3.1-.1.1 0 .2.1.3h.1zm-28.8 54.1s.1 0 0 0c.2 0 .3 0 .3-.1s0-.3-.1-.3-.2 0-.3.1c-.1.1 0 .3.1.3zm22-43.9c.1 0 .1 0 .2-.1s0-.2-.1-.3c-.1-.1-.2 0-.3.1-.1.1 0 .2.1.3h.1zm30-38.8c.1 0 .1 0 .2-.1s.1-.2 0-.3c-.1-.1-.2-.1-.3 0-.1.1-.1.2 0 .3 0 .1.1.1.1.1zm-66.6 202.9c-.1 0-.2.1-.2.3 0 .1.1.2.2.2s.2-.1.2-.3c0-.1-.1-.2-.2-.2zm-1.8-24.5c-.1 0-.2.1-.2.2s.1.2.2.2.2-.1.2-.2-.1-.2-.2-.2zm45 137.9c-.1.1-.1.2-.1.3 0 .1.1.1.2.1h.1c.1-.1.1-.2.1-.3 0-.1-.2-.2-.3-.1zm-32.6-222c.1 0 .2-.1.2-.2s0-.2-.1-.3c-.1 0-.2 0-.3.1-.1.2 0 .4.2.4-.1 0-.1 0 0 0zm-8.9 35.7c.1 0 .2-.1.3-.2 0-.1-.1-.2-.2-.3-.1 0-.2.1-.3.2 0 .2.1.3.2.3zm49.1 196.2c-.1-.1-.2-.1-.3 0-.1.1-.1.2 0 .3 0 .1.1.1.2.1h.1c.1-.1.1-.3 0-.4zm7.4 9.5c-.1.1-.1.2 0 .3 0 .1.1.1.2.1s.1 0 .1-.1c.1-.1.1-.2 0-.3-.1-.1-.2-.1-.3 0zm8.2 9.2c-.1.1-.1.2 0 .3 0 0 .1.1.2.1s.1 0 .2-.1.1-.2 0-.3c-.2-.1-.3-.1-.4 0zm-8.2-336.1c-.1.1-.1.2 0 .3l.1.1c.1 0 .1 0 .2-.1s.1-.2 0-.3c0-.1-.2-.1-.3 0zm-7.7 9.5c-.1.1-.1.2 0 .3h.1c.1 0 .1 0 .2-.1s.1-.2 0-.3c-.1 0-.2 0-.3.1zm-13.7 287.8c-.1-.1-.2-.1-.3-.1-.1.1-.1.2-.1.3 0 .1.1.1.2.1h.1c.1 0 .1-.1.1-.3zm-17.5-32.5c-.1.1-.2.2-.1.3 0 .1.1.1.2.1h.1c.1 0 .2-.2.1-.3-.1-.1-.2-.1-.3-.1zm5.3-213.4c.1 0 .2 0 .2-.1.1-.1 0-.2-.1-.3-.1-.1-.3 0-.3.1-.1.1 0 .3.1.3h.1zm-.1 224.5c-.1.1-.2.2-.1.3 0 .1.1.1.2.1h.1c.1-.1.2-.2.1-.3-.1-.1-.2-.1-.3-.1zm-17.5-45.7c-.1 0-.2.2-.2.3 0 .1.1.2.2.2h.1c.1 0 .2-.2.2-.3 0-.2-.2-.3-.3-.2zm23.1-190c-.1.1 0 .2.1.3h.1c.1 0 .2 0 .2-.1.1-.1 0-.2-.1-.3-.1 0-.2 0-.3.1zm-15.5 213.3c-.1 0-.2.2-.1.3 0 .1.1.1.2.1h.1c.1 0 .2-.2.1-.3 0-.1-.1-.1-.3-.1zm-4.1-11.6c-.1 0-.2.2-.1.3 0 .1.1.2.2.2h.1c.1 0 .2-.2.1-.3 0-.1-.1-.2-.3-.2zm19.7 44.8c-.1.1-.1.2-.1.3 0 .1.1.1.2.1h.1c.1-.1.1-.2.1-.3 0-.1-.2-.1-.3-.1zm-23.2-189.4c.1 0 .2-.1.2-.2s0-.2-.2-.3c-.1 0-.2 0-.3.2l.3.3zm-3 11.9c.1 0 .1 0 0 0 .2 0 .3-.1.3-.2s0-.2-.2-.3c-.1 0-.2.1-.3.2.1.1.1.2.2.3zm15.4-46.7c.1 0 .2-.1.2-.1.1-.1 0-.2-.1-.3-.1 0-.3 0-.3.1-.1.1-.1.3.2.3-.1 0-.1 0 0 0zm-15.3 155.8c-.1 0-.2.1-.2.3 0 .1.1.2.2.2s.2-.1.2-.3c0-.2-.1-.3-.2-.2zm-2.4-12.1c-.1 0-.2.1-.2.3 0 .1.1.2.2.2s.2-.1.2-.3c.1-.1-.1-.2-.2-.2zm-14.7-79.1c.1 0 .1 0 .1-.1s0-.1-.1-.1-.1 0-.1.1 0 .1.1.1zm0 73.2c-.1 0-.1.1-.1.1 0 .1.1.1.1.1.1 0 .1-.1.1-.1 0-.1-.1-.1-.1-.1zm-1.4-61c.1 0 .1 0 .1-.1s0-.1-.1-.1-.1 0-.1.1 0 .1.1.1zm21.5 131.6c0-.1-.1-.1-.1-.1-.1 0-.1.1-.1.1l.1.1c.1 0 .2 0 .1-.1zm-18.2-155.9c.1 0 .1 0 .1-.1s0-.1-.1-.1-.1 0-.1.1 0 .1.1.1zm-3.3 73.1c-.1 0-.1.1-.1.1 0 .1.1.1.1.1.1 0 .1-.1.1-.1l-.1-.1zm16.7-120.2s.1 0 .1-.1 0-.1-.1-.1-.1 0-.1.1l.1.1c0-.1 0 0 0 0zm-7.8 23.2s.1 0 .1-.1 0-.1-.1-.1-.1 0-.1.1 0 .1.1.1zm0 145.2c-.1 0-.1.1-.1.1l.1.1c.1 0 .1-.1.1-.1.1-.1 0-.1-.1-.1zm3.6 11.7c-.1 0-.1.1-.1.1l.1.1c.1 0 .1-.1.1-.1.1-.1 0-.1-.1-.1zm4.2 11.6c-.1 0-.1.1-.1.1l.1.1c.1 0 .1-.1.1-.1 0-.1 0-.2-.1-.1zm-13.4-47.2c-.1 0-.1.1-.1.1 0 .1.1.1.1.1.1 0 .1-.1.1-.1.1-.1 0-.1-.1-.1zm2.6 12c-.1 0-.1.1-.1.1 0 .1.1.1.1.1.1 0 .1-.1.1-.1 0-.1-.1-.1-.1-.1zm-.1-121.4c.1 0 .1 0 .1-.1s0-.1-.1-.1-.1 0-.1.1l.1.1zm20.8 178.9c-.1 0-.1.1-.1.2l.1.1c.1 0 .1-.1.1-.2s0-.1-.1-.1zm18.6 31.7c-.1 0-.1.1 0 .2h.2c.1 0 .1-.1 0-.2h-.2zm-18.5-268.2s.1 0 .1-.1 0-.1-.1-.2c-.1 0-.1 0-.2.1 0 .1 0 .1.2.2-.1 0-.1 0 0 0zm5.6-11.1v.2h.1s.1 0 .1-.1v-.2c-.1.1-.2.1-.2.1zm13-20.8v.2h.1s.1 0 .1-.1v-.2c-.1 0-.2 0-.2.1zm-13 279.3c-.1 0-.1.1 0 .2l.1.1h.1c.1 0 .1-.1 0-.2s-.1-.2-.2-.1zm20.1 30.8s-.1.1 0 .2h.2c.1 0 .1-.1 0-.2s-.2-.1-.2 0zm-13.9-20.3c-.1 0-.1.1 0 .2l.1.1h.1c.1 0 .1-.1 0-.2 0-.1-.1-.1-.2-.1zm29.6 39.1s-.1.1 0 .2h.2s.1-.1 0-.2h-.2zm-29.6-318.7v.2h.1s.1 0 .1-.1v-.2c-.1.1-.1.1-.2.1zm29.7-38.9s.1 0 0 0c.1-.1.1-.2.1-.2h-.2c0 .1 0 .1.1.2zM245.3 383c.1 0 .1 0 .1-.1s0-.1-.1-.1-.1 0-.1.1l.1.1zm61-157.7v.2h.2v-.2c-.1-.1-.2-.1-.2 0zm-.1 339.3s-.1.1 0 .2h.2s.1-.1 0-.2-.1-.1-.2 0zm-60.9-157.3c-.1 0-.1.1-.1.1 0 .1.1.1.1.1.1 0 .1-.1.1-.1.1-.1 0-.1-.1-.1zm53.3-172.4v.2h.2v-.2c-.1-.1-.1-.1-.2 0zM245.1 395c-.1 0-.1 0-.1.1s0 .1.1.1.1-.1.1-.1l-.1-.1zm22.5-107.1s.1 0 .1-.1 0-.1-.1-.1-.1 0-.2.1c.1 0 .1.1.2.1zm-8.9 22.9c.1 0 .1 0 .1-.1s0-.1-.1-.1-.1 0-.1.1c0 0 0 .1.1.1z" class="readepi_svg__st0" style="fill:#18bed2" transform="translate(-35.216 -52.255) scale(.26458)"/>
  <g style="font-size:18.7561px;font-family:ClashDisplay-Medium;stroke-width:.264583">
    <path d="M55.272 117.61v-5.232c0-1.67.656-2.551 2.25-2.551 1.388 0 1.951.619 1.951 1.95v.826h2.007v-1.22c0-1.763-.92-3.282-3.039-3.282-1.913 0-2.926 1.2-3.207 2.701h-.131v-2.513h-1.857v9.322zm12.172.188c2.776 0 4.727-1.37 4.727-3.357v-.17h-2.026v.151c0 1.107-.806 1.744-2.757 1.744-2.157 0-3.038-.956-3.113-2.757h7.915c.056-.281.075-.544.075-.881 0-2.833-1.97-4.427-4.858-4.427-3.039 0-5.027 1.95-5.027 4.858 0 3.114 2.007 4.84 5.064 4.84zm-.075-8.103c1.988 0 2.983.826 2.983 2.551v.038h-6.059c.113-1.67 1.013-2.589 3.076-2.589zm9.153 8.103c2.12 0 3.601-.938 4.09-2.513h.13v2.326H82.6v-5.665c0-2.232-1.331-3.845-4.295-3.845-2.963 0-4.726 1.594-4.726 3.714v.075h2.006v-.075c0-1.37.844-1.932 2.57-1.932 1.782 0 2.457.544 2.457 2.082v.544l-4.239.45c-1.838.206-3 .957-3 2.4 0 1.539 1.218 2.44 3.15 2.44zm-1.125-2.57c0-.731.506-.975 1.557-1.106l3.657-.413c0 1.838-1.425 2.626-3.545 2.626-1.163 0-1.67-.356-1.67-1.107zm13.11 2.57c2.101 0 3.47-1.013 3.864-2.87h.131v2.683h1.857v-12.567h-2.025v5.777h-.113c-.375-1.576-1.632-2.72-3.845-2.72-2.832 0-4.445 1.95-4.445 4.858 0 2.87 1.632 4.84 4.576 4.84zm-2.532-4.839c0-2.25 1.163-3.02 3.114-3.02 2.082 0 3.245.976 3.245 2.964v.15c0 1.95-1.22 2.888-3.208 2.888-2.007 0-3.15-.75-3.15-2.982zm14.949 4.839c2.776 0 4.726-1.37 4.726-3.357v-.17h-2.025v.151c0 1.107-.807 1.744-2.757 1.744-2.157 0-3.039-.956-3.114-2.757h7.915a4.29 4.29 0 0 0 .075-.881c0-2.833-1.97-4.427-4.858-4.427-3.038 0-5.026 1.95-5.026 4.858 0 3.114 2.007 4.84 5.064 4.84zm-.075-8.103c1.988 0 2.982.826 2.982 2.551v.038h-6.058c.112-1.67 1.013-2.589 3.076-2.589zm8.441 11.104v-5.814h.074c.375 1.706 1.726 2.813 3.826 2.813 2.908 0 4.502-1.95 4.502-4.839 0-2.888-1.632-4.858-4.52-4.858-2.195 0-3.508 1.05-3.883 2.776h-.169v-2.588h-1.857v12.51zm0-7.69v-.169c0-2.007 1.162-2.982 3.244-2.982 1.95 0 3.132.75 3.132 3.001 0 2.232-1.163 3.001-3.17 3.001-1.988 0-3.207-.938-3.207-2.85zm11.834-5.909v-2.156H119.1v2.157zm0 10.41v-9.321H119.1v9.322z" aria-label="readepi" class="readepi_svg__st2 readepi_svg__st3" style="font-weight:500;font-family:&quot;Clash Display&quot;;-inkscape-font-specification:&quot;Clash Display Medium&quot;" transform="translate(-43.164 -47.259)"/>
  </g>
  <path d="m87.746 48.793 43.233 24.977v49.953L87.719 148.7 44.46 123.723V73.77l43.286-24.977m0-1.534L43.164 73.003v51.488l44.582 25.744 44.556-25.744V73.003Z" class="readepi_svg__st4" style="fill:url(#readepi_svg__b);stroke-width:.264583" transform="translate(-43.164 -47.259)"/>
  <path d="M30.586 84.19v-4.524h3.81v.9H31.59v.873h2.699v.9H31.59v.899h2.805v.9h-3.81zm4.286 1.165V80.83h.926v.926h.08c.132-.635.555-.979 1.349-.979 1.032 0 1.614.688 1.614 1.747 0 1.058-.556 1.746-1.588 1.746-.793 0-1.217-.397-1.323-.98h-.052v2.065zm1.984-2.011c.635 0 .953-.212.953-.82 0-.609-.291-.82-.953-.82-.661 0-.978.211-.978.82v.052c0 .556.343.768.978.768zm2.382-2.858v-.793h1.005v.793zm0 3.704v-3.36h1.005v3.387h-1.005zm2.698 0-1.534-3.386h1.138l1.005 2.381h.08l1.005-2.381h1.111l-1.535 3.386zm2.673-1.666c0-1.085.767-1.747 1.878-1.747 1.112 0 1.852.582 1.852 1.64 0 .133-.026.212-.026.318H45.56c.027.53.265.741.926.741.609 0 .82-.159.82-.45v-.08h1.006v.08c0 .741-.714 1.244-1.8 1.244-1.137 0-1.904-.556-1.904-1.746zm.952-.344h1.8c-.027-.45-.292-.635-.9-.635-.609 0-.873.211-.9.635zm3.149 2.01v-3.36h.926v.9h.053c.106-.556.45-.953 1.137-.953.768 0 1.059.53 1.059 1.19v.557h-1.006v-.37c0-.371-.158-.53-.555-.53-.45 0-.609.212-.609.635v1.958H48.71zm3.413-1.137 1.005-.027v.053c0 .291.186.397.768.397.529 0 .661-.08.661-.291 0-.185-.106-.238-.503-.291l-.952-.106c-.662-.08-1.058-.37-1.058-.952s.502-1.059 1.666-1.059c1.112 0 1.72.424 1.72 1.244v.026h-1.005v-.053c0-.264-.132-.423-.767-.423-.503 0-.635.08-.635.291 0 .185.105.238.529.291l.714.08c.9.105 1.244.396 1.244.952 0 .635-.635 1.058-1.667 1.058-1.085.027-1.72-.423-1.72-1.19zm3.651-.529c0-1.085.767-1.747 1.879-1.747 1.111 0 1.852.582 1.852 1.64 0 .133-.027.212-.027.318h-2.751c.026.53.264.741.926.741.608 0 .82-.159.82-.45v-.08h1.005v.08c0 .741-.714 1.244-1.799 1.244-1.138 0-1.905-.556-1.905-1.746zm.953-.344h1.799c-.027-.45-.291-.635-.9-.635-.608 0-.846.211-.9.635z"/>
  <path d="M336 528.3c-1.1 0-2 .9-2 2s.8 2 2 2c1.1 0 2-.8 2-2-.1-1.1-.9-2-2-2m7.3-5.2c-3 0-5.2 1.9-5.2 4.6 0 2.7 2.1 4.6 5.2 4.6s5.2-1.9 5.2-4.6c0-2.8-2.1-4.6-5.2-4.6m0 8.9c-1 0-1.3-.9-1.3-4.3 0-3.6.3-4.3 1.3-4.3s1.3.8 1.3 4.3c0 3.4-.3 4.3-1.3 4.3m12-9.1c-1.1 0-2.3.9-2.5 2.2l-3.5-2.2v9.3h3.6v-6.6c0-1.4 1.6-1.4 2.4-1.4zm6.2 6.8h-5.3l1.5-1c.6.2.9.2 1.7.2 2.9 0 4.3-1 4.3-2.9 0-1.1-.6-2-1.7-2.6h2.2v-1.3l-2.6 1.2c-.6-.2-1.3-.3-2.1-.3-2.9 0-4.2 1.2-4.2 2.9 0 1.2.7 2.1 1.8 2.6l-1.9 1.2.9 3.1h8.4c0-.1 0-.1.1-.2v-1.1c-.4-1.1-1.3-1.8-3.1-1.8m-2.1-6.5c1 0 1.2 1.1 1.2 2.8 0 1.5-.2 2.7-1.2 2.7s-1.2-1.2-1.2-2.7c0-1.7.2-2.8 1.2-2.8m-45.2-.2c-.9 0-2.3.2-3.5.6v1.3c.8-.8 2-1.7 3-1.7s1.1.9 1.1 1.6v1.9c-3.6 0-5.2 1.2-5.2 3 0 1.6 1.1 2.3 2.6 2.3 1.6 0 2.6-1 2.7-2l3.4 2.1v-5.9c.2-2.5-1.2-3.2-4.1-3.2m.7 6.9c0 .4-.3.9-.9.9-.7 0-1-.6-1-1.6s.5-2 1.9-2.3zm10-7.2h-1.4v-2.4l-3.5 2.4h-1.3v.7h1.3v8.8h3.5v-8.8h1.4zm-19.3-3.3v5.3c-.3-1.1-1.3-1.8-2.6-1.8-2.3 0-3.8 1.9-3.8 4.7 0 2.7 1.3 4.5 3.7 4.5 1.6 0 2.5-.8 2.7-2l3.6 2.1v-10.6zm0 10.1c0 .8-.4 1.4-1.1 1.4-1.3 0-1.4-1.5-1.4-3.4 0-2.1.2-3.3 1.4-3.3.7 0 1.1.6 1.1 1.4zm23.2-6.5c-.9 0-2.3.2-3.5.6v1.3c.8-.8 2-1.7 3-1.7s1.1.9 1.1 1.6v1.9c-3.6 0-5.2 1.2-5.2 3 0 1.6 1.1 2.3 2.6 2.3 1.6 0 2.6-1 2.7-2l3.4 2.1v-5.9c.2-2.5-1.3-3.2-4.1-3.2m.7 6.9c0 .4-.3.9-.9.9-.7 0-1-.6-1-1.6s.5-2 1.9-2.3z" class="readepi_svg__st12" style="clip-rule:evenodd;fill-rule:evenodd" transform="translate(-35.216 -52.255) scale(.26458)"/>
  <path d="M28.39 88.715v-1.667h.106v.344h.026c.053-.212.265-.37.556-.37.397 0 .608.264.608.634s-.211.635-.608.635c-.265 0-.477-.158-.53-.396v.793h-.158zm.635-.503c.317 0 .529-.132.529-.53 0-.396-.212-.528-.503-.528-.317 0-.529.211-.529.529v.026c-.026.318.185.503.503.503zm.794-.529c0-.37.264-.635.661-.635s.661.265.661.635-.264.635-.661.635-.661-.265-.661-.635zm1.217 0c0-.318-.186-.53-.556-.53-.37 0-.556.212-.556.53 0 .317.186.53.556.53.37 0 .556-.213.556-.53zm.661.608-.423-1.217h.106l.29.9.054.212.079-.238.37-.9h.133l.37.9.08.211.052-.211.291-.9h.106l-.423 1.217h-.132l-.37-.873-.107-.238-.105.238-.37.873zm1.72-.608c0-.37.238-.635.635-.635.344 0 .608.212.608.556v.105h-1.11c0 .318.158.503.528.503.318 0 .477-.132.477-.317v-.027h.105v.027c0 .264-.264.423-.582.423-.397 0-.661-.265-.661-.635zm.106-.053h1.032v-.053c0-.291-.186-.45-.503-.45-.344 0-.503.212-.53.503zm1.402.661v-1.217h.106v.344a.438.438 0 0 1 .45-.37c.29 0 .423.212.423.45v.106h-.106v-.08c0-.238-.106-.344-.344-.344-.29 0-.397.185-.397.503v.661h-.132zm1.111-.608c0-.37.238-.635.635-.635.344 0 .609.212.609.556v.105h-1.111c0 .318.158.503.529.503.317 0 .476-.132.476-.317v-.027h.106v.027c0 .264-.265.423-.582.423-.424 0-.662-.265-.662-.635zm.106-.053h1.032v-.053c0-.291-.185-.45-.503-.45-.344 0-.502.212-.529.503zm1.297.053c0-.37.211-.635.608-.635.291 0 .476.159.53.37v-.793h.105v1.666h-.08v-.37c-.052.238-.264.397-.555.397-.397 0-.608-.265-.608-.635zm.635.53c.317 0 .529-.186.529-.504v-.026c0-.344-.212-.53-.53-.53-.29 0-.502.133-.502.53-.027.397.185.53.503.53zm1.931.078v-1.666h.106v.793c.053-.211.238-.37.555-.37.397 0 .609.265.609.635s-.212.635-.609.635c-.264 0-.476-.159-.529-.397v.37zm.635-.079c.318 0 .53-.132.53-.53 0-.396-.212-.528-.504-.528-.343 0-.529.211-.529.529v.026c0 .318.186.503.503.503zm.873.503v-.106h.159c.132 0 .185-.053.238-.159l.08-.185-.61-1.217h.133l.397.794.159.317.132-.317.37-.794h.106l-.688 1.429c-.079.158-.185.238-.344.238z"/>
  <path d="M-2649.952 1870.828a2.993 2.993 0 0 1-1.8-1.593l-.196-.42v-42.718l.2-.424a3.006 3.006 0 0 1 1.883-1.612c.379-.109 1.6-.119 12.211-.1l11.79.02.492.22c.458.207.836.566 5.57 5.286 4.581 4.566 5.101 5.109 5.293 5.525l.214.46v33.348l-.25.506c-.301.613-.914 1.191-1.524 1.438l-.42.17-16.52.015c-15.702.014-16.54.01-16.943-.12zm33.053-2.43c.144-.078.146-.333.146-15.69v-15.61h-3.723c-2.056 0-3.925-.033-4.174-.074a2.909 2.909 0 0 1-2.182-1.648l-.241-.508-.022-4.215-.022-4.216h-11.041c-7.467 0-11.09.025-11.188.078-.144.077-.146.392-.146 20.94 0 19.788.01 20.865.132 20.938.186.109 32.257.112 32.46 0zm-25.788-9.09c-.43-.292-.566-.543-.566-1.04 0-.328.04-.495.156-.65a1.4 1.4 0 0 1 .832-.562c.439-.102 17.846-.093 18.322.01.89.19 1.287 1.28.714 1.96-.408.485.276.454-9.916.454h-9.292zm.328-6.192c-.388-.088-.825-.54-.899-.93a1.264 1.264 0 0 1 .653-1.367c.322-.167 18.644-.167 18.967 0 1.027.531.825 2.06-.305 2.303-.483.104-17.953.098-18.416-.01zm-.259-6.44c-.896-.473-.877-1.763.033-2.195.238-.113 1.09-.124 9.463-.124s9.225.01 9.463.124c.91.432.93 1.722.033 2.195l-.334.176h-18.325zm21.253-15.257-3.213-3.177-.021 3.048c-.021 3.033-.02 3.05.14 3.181.148.121.417.132 3.234.129h3.073z" style="fill:#888;fill-opacity:1;stroke-width:1" transform="translate(739.662 -461.461) scale(.26458)"/>
  <g style="stroke-width:1.24044">
    <path d="M479.702 234.564h39.633v49.105h-39.633z" class="readepi_svg__cls-1" data-name="&amp;lt;Transparent Rectangle&amp;gt;" style="fill:#888;fill-opacity:1;stroke-width:1.24044" transform="matrix(.21313 0 0 .21346 -75.094 -27.988)"/>
    <path d="M499.508 230.678c-11.66 0-24.208 2.746-24.208 8.775v39.49c0 6.028 12.549 8.775 24.208 8.775 11.659 0 24.207-2.747 24.207-8.776v-39.489c0-6.029-12.548-8.775-24.207-8.775zm0 4.387c12.759 0 19.355 3.147 19.799 4.388-.444 1.242-7.04 4.388-19.8 4.388-12.854 0-19.452-3.194-19.805-4.35v-.01c.353-1.222 6.951-4.416 19.806-4.416zm-19.806 9.714c4.683 2.342 12.417 3.45 19.806 3.45 7.388 0 15.123-1.108 19.806-3.45v7.81c-.353 1.221-6.951 4.415-19.806 4.415-12.874 0-19.474-3.203-19.806-4.388zm0 13.163c4.683 2.342 12.417 3.45 19.806 3.45 7.388 0 15.123-1.108 19.806-3.45v7.81c-.353 1.222-6.951 4.415-19.806 4.415-12.874 0-19.474-3.203-19.806-4.388zm19.806 25.388c-12.874 0-19.474-3.203-19.806-4.388v-7.837c4.683 2.342 12.417 3.45 19.806 3.45 7.388 0 15.123-1.108 19.806-3.45v7.81c-.353 1.222-6.951 4.415-19.806 4.415z" style="fill:#161e26;fill-opacity:1;stroke:#000;stroke-width:1.24044;stroke-opacity:0" transform="matrix(.21313 0 0 .21346 -75.094 -27.988)"/>
  </g>
  <path d="M-2604.104 1870.914c0-.02-.01-.036-.023-.036-.06 0-.718-.13-.933-.184a9.177 9.177 0 0 1-2.452-1.051 8.816 8.816 0 0 1-3.81-5.213 8.006 8.006 0 0 1-.275-2.033c-.033-1.464.24-2.745.863-4.045a8.707 8.707 0 0 1 4.44-4.243l.315-.136.016-.258a5.915 5.915 0 0 1 5.004-5.451c.384-.06 1.254-.061 1.647 0 .99.148 1.866.516 2.734 1.15.041.03.06 0 .225-.328a11.495 11.495 0 0 1 2.012-2.858c2-2.075 4.55-3.32 7.464-3.646.48-.054 1.634-.073 2.133-.037 2.927.214 5.562 1.382 7.615 3.377a11.445 11.445 0 0 1 3.428 6.932c.035.303.088 1.301.07 1.333 0 .011-.011.171-.011.363v.349l.142.019c2.676.353 5.055 2.129 6.179 4.612.381.843.616 1.743.702 2.687.037.405.017 1.355-.037 1.743a8.214 8.214 0 0 1-1.672 3.969 10.428 10.428 0 0 1-1.28 1.291 7.952 7.952 0 0 1-4.234 1.708c-.179.017-5.22.025-15.262.025-13.314 0-14.996 0-14.996-.036z" style="fill:#888;fill-opacity:1;stroke-width:1" transform="translate(739.662 -461.461) scale(.26458)"/>
  <path d="M-2698.999 1873.098h43.96v76.459h-43.96z" class="readepi_svg__st6" style="clip-rule:evenodd;opacity:.91;fill:#93aca7;fill-rule:evenodd;stroke-width:1" transform="translate(739.662 -461.461) scale(.26458)"/>
  <path d="M-2699.062 1888.098h43.96v9.58h-43.96zm0 20.53h43.96v9.58h-43.96zm0 20.53h43.96v9.58h-43.96z" class="readepi_svg__st11" style="clip-rule:evenodd;fill:#fff;fill-opacity:.6145;fill-rule:evenodd;stroke-width:1.09491" transform="translate(739.662 -461.461) scale(.26458)"/>
  <path d="M-2655.04 1873.098h43.96v76.459h-43.96z" class="readepi_svg__st6" style="clip-rule:evenodd;opacity:.91;fill:#d7df21;fill-opacity:.909804;fill-rule:evenodd;stroke-width:1" transform="translate(739.662 -461.461) scale(.26458)"/>
  <path d="M-2655.102 1888.098h43.96v9.58h-43.96zm0 20.53h43.96v9.58h-43.96zm0 20.53h43.96v9.58h-43.96z" class="readepi_svg__st11" style="clip-rule:evenodd;fill:#fff;fill-opacity:.6145;fill-rule:evenodd;stroke-width:1.09491" transform="translate(739.662 -461.461) scale(.26458)"/>
  <path d="M-2611.08 1873.098h43.96v76.459h-43.96z" class="readepi_svg__st6" style="clip-rule:evenodd;opacity:.91;fill:#88a9d9;fill-opacity:1;fill-rule:evenodd;stroke-width:1" transform="translate(739.662 -461.461) scale(.26458)"/>
  <path d="M-2611.142 1888.098h43.96v9.58h-43.96zm0 20.53h43.96v9.58h-43.96zm0 20.53h43.96v9.58h-43.96z" class="readepi_svg__st11" style="clip-rule:evenodd;fill:#fff;fill-opacity:.6145;fill-rule:evenodd;stroke-width:1.09491" transform="translate(739.662 -461.461) scale(.26458)"/>
</svg>
